<?xml version="1.0" encoding="UTF-8"?>
<svg xmlns="http://www.w3.org/2000/svg" xmlns:xlink="http://www.w3.org/1999/xlink" width="30px" height="30px" viewBox="0 0 30 30" version="1.1">
<g id="surface1">
<path style=" stroke:none;fill-rule:nonzero;fill:rgb(99.607843%,99.607843%,99.607843%);fill-opacity:1;" d="M 0 0 C 9.898438 0 19.800781 0 30 0 C 30 9.898438 30 19.800781 30 30 C 20.101562 30 10.199219 30 0 30 C 0 20.101562 0 10.199219 0 0 Z M 0 0 "/>
<path style=" stroke:none;fill-rule:nonzero;fill:rgb(56.470591%,3.921569%,8.627451%);fill-opacity:1;" d="M 16.699219 5.5 C 17.09375 5.632812 17.332031 5.785156 17.601562 6.101562 C 17.800781 6.703125 17.808594 7.375 17.53125 7.949219 C 16.957031 8.570312 16.441406 8.722656 15.640625 8.90625 C 15.175781 9.015625 15.175781 9.015625 14.800781 9.296875 C 14.59375 9.710938 14.5625 10.039062 14.601562 10.5 C 14.789062 10.910156 14.941406 11.066406 15.335938 11.289062 C 15.984375 11.492188 16.855469 11.566406 17.472656 11.269531 C 17.679688 11.113281 17.84375 10.96875 18.011719 10.773438 C 18.058594 10.722656 18.109375 10.667969 18.15625 10.609375 C 18.542969 10.039062 18.648438 9.53125 18.667969 8.855469 C 18.671875 8.78125 18.675781 8.710938 18.679688 8.632812 C 18.6875 8.457031 18.695312 8.277344 18.699219 8.101562 C 19.121094 8.417969 19.378906 8.679688 19.5 9.199219 C 19.609375 10.125 19.453125 11.058594 18.9375 11.847656 C 18.6875 12.304688 18.746094 12.792969 18.800781 13.300781 C 18.878906 13.691406 18.878906 13.691406 19.199219 13.898438 C 19.878906 13.984375 20.53125 13.914062 21.199219 13.800781 C 21.832031 13.742188 22.4375 13.789062 23 14.101562 C 23.359375 14.421875 23.644531 14.738281 23.800781 15.199219 C 23.808594 15.421875 23.808594 15.644531 23.804688 15.867188 C 23.804688 15.988281 23.804688 16.105469 23.804688 16.226562 C 23.800781 16.363281 23.800781 16.363281 23.800781 16.5 C 23.601562 16.597656 23.601562 16.597656 23.398438 16.699219 C 23.402344 16.632812 23.40625 16.566406 23.410156 16.5 C 23.441406 15.796875 23.441406 15.796875 23.101562 15.199219 C 22.800781 14.96875 22.46875 14.953125 22.097656 14.960938 C 21.765625 15.027344 21.605469 15.246094 21.398438 15.5 C 21.367188 15.53125 21.335938 15.566406 21.300781 15.601562 C 21.234375 16.464844 21.335938 17.242188 21.53125 18.082031 C 21.675781 18.761719 21.683594 19.304688 21.328125 19.917969 C 20.828125 20.625 20.066406 20.929688 19.308594 21.300781 C 18.753906 21.570312 18.226562 21.878906 17.699219 22.199219 C 17.617188 22.25 17.535156 22.296875 17.449219 22.347656 C 16.976562 22.644531 16.636719 22.960938 16.28125 23.390625 C 15.792969 23.953125 15.335938 24.453125 14.574219 24.519531 C 14.460938 24.523438 14.460938 24.523438 14.34375 24.523438 C 14.230469 24.527344 14.230469 24.527344 14.113281 24.53125 C 13.847656 24.492188 13.761719 24.410156 13.601562 24.199219 C 13.601562 24.132812 13.601562 24.066406 13.601562 24 C 13.832031 23.902344 14.0625 23.800781 14.300781 23.699219 C 14.300781 23.46875 14.300781 23.238281 14.300781 23 C 13.925781 22.878906 13.589844 22.859375 13.199219 22.898438 C 12.925781 23.125 12.925781 23.125 12.699219 23.398438 C 12.570312 23.503906 12.4375 23.605469 12.300781 23.699219 C 12.261719 23.230469 12.25 22.894531 12.46875 22.46875 C 12.886719 21.984375 13.382812 21.535156 14.046875 21.476562 C 14.449219 21.472656 14.808594 21.496094 15.199219 21.601562 C 16.011719 21.71875 16.648438 21.371094 17.300781 20.898438 C 18.085938 20.257812 19.046875 19.390625 19.1875 18.34375 C 19.191406 18.230469 19.195312 18.117188 19.199219 18 C 18.554688 17.617188 18.046875 17.535156 17.300781 17.523438 C 17.203125 17.523438 17.105469 17.519531 17.007812 17.515625 C 16.773438 17.507812 16.535156 17.503906 16.300781 17.5 C 16.300781 17.402344 16.300781 17.300781 16.300781 17.199219 C 16.496094 17.0625 16.699219 16.929688 16.898438 16.800781 C 17.105469 16.628906 17.105469 16.628906 17.199219 16.398438 C 17.191406 15.859375 17.039062 15.417969 16.699219 15 C 16.296875 14.652344 15.941406 14.558594 15.40625 14.570312 C 15.0625 14.621094 14.828125 14.804688 14.550781 15 C 13.78125 15.492188 13.097656 15.523438 12.199219 15.398438 C 11.753906 15.261719 11.570312 15.082031 11.300781 14.699219 C 11.371094 14.683594 11.441406 14.664062 11.511719 14.648438 C 11.601562 14.625 11.695312 14.601562 11.789062 14.574219 C 11.878906 14.550781 11.96875 14.527344 12.0625 14.503906 C 12.308594 14.421875 12.308594 14.421875 12.429688 14.210938 C 12.535156 13.890625 12.535156 13.636719 12.5 13.300781 C 12.371094 12.996094 12.371094 12.996094 12.101562 12.800781 C 11.585938 12.652344 11.078125 12.640625 10.601562 12.898438 C 10.480469 13.128906 10.480469 13.128906 10.398438 13.398438 C 10.089844 13.910156 9.777344 14.367188 9.226562 14.632812 C 8.546875 14.773438 8.003906 14.78125 7.398438 14.398438 C 7.335938 14.335938 7.269531 14.269531 7.199219 14.199219 C 7.199219 14.066406 7.199219 13.9375 7.199219 13.800781 C 7.363281 13.777344 7.363281 13.777344 7.53125 13.757812 C 7.894531 13.710938 7.894531 13.710938 8.199219 13.601562 C 8.203125 13.472656 8.207031 13.34375 8.210938 13.210938 C 8.214844 13.140625 8.21875 13.070312 8.21875 12.996094 C 8.21875 12.777344 8.21875 12.777344 8 12.601562 C 7.710938 12.542969 7.710938 12.542969 7.398438 12.601562 C 6.867188 13.019531 6.597656 13.535156 6.5 14.199219 C 6.207031 13.933594 6.113281 13.738281 6.074219 13.335938 C 6.054688 12.464844 6.203125 11.921875 6.769531 11.257812 C 7.136719 10.917969 7.515625 10.886719 8 10.898438 C 8.148438 10.917969 8.296875 10.933594 8.445312 10.957031 C 8.5625 10.96875 8.679688 10.984375 8.800781 11 C 9.035156 10.808594 9.035156 10.808594 9.011719 10.488281 C 9.007812 10.394531 9.003906 10.296875 9 10.199219 C 8.695312 10.046875 8.4375 10.078125 8.101562 10.101562 C 7.8125 10.238281 7.8125 10.238281 7.601562 10.398438 C 7.566406 9.933594 7.605469 9.671875 7.898438 9.300781 C 8.320312 8.929688 8.644531 8.84375 9.191406 8.867188 C 9.472656 8.910156 9.664062 9.046875 9.898438 9.199219 C 10.222656 9.238281 10.410156 9.257812 10.6875 9.082031 C 10.839844 8.835938 10.84375 8.683594 10.800781 8.398438 C 10.445312 8.164062 10.316406 8.160156 9.898438 8.199219 C 9.570312 8.339844 9.570312 8.339844 9.300781 8.5 C 9.253906 7.929688 9.328125 7.640625 9.699219 7.199219 C 10.21875 6.808594 10.621094 6.660156 11.257812 6.664062 C 11.539062 6.707031 11.683594 6.796875 11.914062 6.957031 C 12.226562 7.179688 12.226562 7.179688 12.613281 7.179688 C 12.742188 7.15625 12.867188 7.128906 13 7.101562 C 13.238281 7.089844 13.476562 7.082031 13.710938 7.082031 C 13.832031 7.078125 13.949219 7.078125 14.070312 7.078125 C 14.398438 7.101562 14.601562 7.175781 14.898438 7.300781 C 15.582031 7.367188 16.21875 7.398438 16.800781 7 C 16.820312 6.242188 16.820312 6.242188 16.699219 5.5 Z M 16.699219 5.5 "/>
<path style=" stroke:none;fill-rule:nonzero;fill:rgb(54.901963%,5.098039%,9.803922%);fill-opacity:1;" d="M 18.699219 8.101562 C 19.121094 8.417969 19.378906 8.679688 19.5 9.199219 C 19.609375 10.125 19.453125 11.058594 18.9375 11.847656 C 18.6875 12.304688 18.738281 12.796875 18.800781 13.300781 C 18.90625 13.574219 19.027344 13.761719 19.199219 14 C 19.101562 14.066406 19.003906 14.132812 18.898438 14.199219 C 18.835938 14.132812 18.769531 14.066406 18.699219 14 C 18.699219 13.867188 18.699219 13.734375 18.699219 13.601562 C 18.667969 13.433594 18.636719 13.265625 18.601562 13.101562 C 18.535156 13.101562 18.46875 13.101562 18.398438 13.101562 C 18.476562 11.832031 18.476562 11.832031 18.699219 11.300781 C 18.601562 11.300781 18.503906 11.300781 18.398438 11.300781 C 18.398438 11.234375 18.398438 11.167969 18.398438 11.101562 C 17.917969 11.253906 17.917969 11.253906 17.601562 11.601562 C 16.871094 11.71875 16.007812 11.835938 15.300781 11.601562 C 15.300781 11.5 15.300781 11.402344 15.300781 11.300781 C 15.402344 11.324219 15.402344 11.324219 15.507812 11.347656 C 15.839844 11.40625 16.160156 11.421875 16.5 11.425781 C 16.621094 11.425781 16.738281 11.429688 16.863281 11.433594 C 17.375 11.382812 17.683594 11.160156 18.011719 10.773438 C 18.058594 10.722656 18.109375 10.667969 18.15625 10.609375 C 18.542969 10.039062 18.648438 9.53125 18.667969 8.855469 C 18.671875 8.78125 18.675781 8.710938 18.679688 8.632812 C 18.6875 8.457031 18.695312 8.277344 18.699219 8.101562 Z M 18.699219 8.101562 "/>
<path style=" stroke:none;fill-rule:nonzero;fill:rgb(56.470591%,4.705882%,9.411765%);fill-opacity:1;" d="M 16.699219 5.5 C 17.09375 5.632812 17.332031 5.785156 17.601562 6.101562 C 17.707031 6.417969 17.71875 6.660156 17.726562 6.992188 C 17.726562 7.097656 17.730469 7.203125 17.734375 7.308594 C 17.695312 7.632812 17.617188 7.765625 17.398438 8 C 17.300781 7.933594 17.203125 7.867188 17.101562 7.800781 C 17.035156 7.832031 16.96875 7.867188 16.898438 7.898438 C 16.898438 7.734375 16.898438 7.570312 16.898438 7.398438 C 16.800781 7.433594 16.703125 7.46875 16.601562 7.507812 C 16.148438 7.621094 15.722656 7.597656 15.261719 7.570312 C 15.191406 7.5625 15.121094 7.558594 15.046875 7.554688 C 14.527344 7.515625 14.527344 7.515625 14.300781 7.398438 C 14.082031 7.390625 13.867188 7.386719 13.648438 7.386719 C 13.535156 7.386719 13.417969 7.386719 13.296875 7.386719 C 13.007812 7.378906 13.007812 7.378906 12.800781 7.5 C 12.316406 7.542969 12.015625 7.453125 11.601562 7.199219 C 11.566406 7.132812 11.535156 7.066406 11.5 7 C 11.070312 7 10.640625 7 10.199219 7 C 10.199219 7.066406 10.199219 7.132812 10.199219 7.199219 C 10.066406 7.167969 9.9375 7.132812 9.800781 7.101562 C 10.367188 6.769531 10.839844 6.558594 11.5 6.699219 C 11.714844 6.820312 11.910156 6.953125 12.113281 7.09375 C 12.421875 7.265625 12.660156 7.171875 13 7.101562 C 13.238281 7.089844 13.476562 7.082031 13.710938 7.082031 C 13.832031 7.078125 13.949219 7.078125 14.070312 7.078125 C 14.398438 7.101562 14.601562 7.175781 14.898438 7.300781 C 15.582031 7.367188 16.21875 7.398438 16.800781 7 C 16.820312 6.242188 16.820312 6.242188 16.699219 5.5 Z M 16.699219 5.5 "/>
<path style=" stroke:none;fill-rule:nonzero;fill:rgb(54.509807%,5.098039%,9.803922%);fill-opacity:1;" d="M 18.101562 20.101562 C 18.199219 20.300781 18.199219 20.300781 18.136719 20.539062 C 17.972656 20.851562 17.792969 21.003906 17.5 21.199219 C 17.433594 21.199219 17.367188 21.199219 17.300781 21.199219 C 17.398438 21.332031 17.496094 21.464844 17.601562 21.601562 C 17.125 21.699219 17.125 21.699219 16.898438 21.699219 C 17.066406 21.824219 17.066406 21.824219 17.300781 21.898438 C 17.5 21.835938 17.699219 21.769531 17.898438 21.699219 C 18 21.765625 18.097656 21.832031 18.199219 21.898438 C 18.019531 22.019531 17.84375 22.136719 17.664062 22.257812 C 17.511719 22.355469 17.511719 22.355469 17.359375 22.457031 C 17.273438 22.503906 17.1875 22.550781 17.101562 22.601562 C 16.898438 22.5 16.898438 22.5 16.800781 22.199219 C 16.738281 22.230469 16.675781 22.261719 16.613281 22.292969 C 16.476562 22.363281 16.335938 22.429688 16.199219 22.5 C 16.167969 22.433594 16.132812 22.367188 16.101562 22.300781 C 15.847656 22.234375 15.847656 22.234375 15.601562 22.199219 C 15.699219 22.132812 15.796875 22.066406 15.898438 22 C 15.734375 22 15.570312 22 15.398438 22 C 15.398438 22.03125 15.398438 22.066406 15.398438 22.101562 C 15.203125 22.101562 15.003906 22.101562 14.800781 22.101562 C 14.765625 22 14.734375 21.902344 14.699219 21.800781 C 14.539062 21.796875 14.375 21.796875 14.210938 21.792969 C 14.121094 21.792969 14.03125 21.792969 13.9375 21.789062 C 13.699219 21.785156 13.699219 21.785156 13.5 21.898438 C 13.5 22 13.5 22.097656 13.5 22.199219 C 13.253906 22.101562 13.253906 22.101562 13 22 C 13.433594 21.660156 13.738281 21.472656 14.300781 21.480469 C 14.382812 21.480469 14.46875 21.484375 14.554688 21.484375 C 14.785156 21.5 14.980469 21.539062 15.199219 21.601562 C 16.023438 21.71875 16.625 21.347656 17.300781 20.898438 C 17.589844 20.652344 17.851562 20.390625 18.101562 20.101562 Z M 18.101562 20.101562 "/>
<path style=" stroke:none;fill-rule:nonzero;fill:rgb(98.039216%,93.333334%,93.333334%);fill-opacity:1;" d="M 8 12.5 C 8.1875 12.613281 8.1875 12.613281 8.300781 12.800781 C 8.355469 13.160156 8.34375 13.332031 8.144531 13.636719 C 7.816406 13.855469 7.582031 13.828125 7.199219 13.800781 C 7.292969 14.136719 7.367188 14.277344 7.65625 14.480469 C 8.332031 14.714844 8.933594 14.625 9.601562 14.398438 C 9.566406 14.53125 9.535156 14.664062 9.5 14.800781 C 9.433594 14.800781 9.367188 14.800781 9.300781 14.800781 C 9.332031 14.898438 9.367188 14.996094 9.398438 15.101562 C 9.335938 15.101562 9.269531 15.101562 9.199219 15.101562 C 9.199219 15 9.199219 14.902344 9.199219 14.800781 C 9.105469 14.824219 9.105469 14.824219 9.011719 14.851562 C 8.410156 14.945312 7.742188 15.019531 7.199219 14.699219 C 7.109375 14.441406 7.109375 14.441406 7.070312 14.136719 C 7.054688 14.039062 7.039062 13.9375 7.027344 13.832031 C 7.015625 13.757812 7.007812 13.679688 7 13.601562 C 6.902344 13.648438 6.902344 13.648438 6.800781 13.699219 C 6.734375 13.902344 6.734375 13.902344 6.699219 14.101562 C 6.632812 14.101562 6.566406 14.101562 6.5 14.101562 C 6.527344 13.457031 6.765625 13.070312 7.199219 12.601562 C 7.480469 12.460938 7.691406 12.476562 8 12.5 Z M 8 12.5 "/>
<path style=" stroke:none;fill-rule:nonzero;fill:rgb(53.725493%,13.333334%,18.431373%);fill-opacity:1;" d="M 23 14.101562 C 23.359375 14.421875 23.644531 14.738281 23.800781 15.199219 C 23.808594 15.421875 23.808594 15.644531 23.804688 15.867188 C 23.804688 15.988281 23.804688 16.105469 23.804688 16.226562 C 23.800781 16.316406 23.800781 16.40625 23.800781 16.5 C 23.601562 16.597656 23.601562 16.597656 23.398438 16.699219 C 23.402344 16.632812 23.40625 16.566406 23.410156 16.5 C 23.441406 15.796875 23.441406 15.796875 23.101562 15.199219 C 22.800781 14.96875 22.472656 14.953125 22.101562 14.960938 C 21.746094 15.03125 21.558594 15.253906 21.300781 15.5 C 21.234375 15.5 21.167969 15.5 21.101562 15.5 C 21.21875 15.25 21.34375 15.03125 21.5 14.800781 C 21.941406 14.652344 22.441406 14.667969 22.898438 14.699219 C 22.964844 14.734375 23.03125 14.765625 23.101562 14.800781 C 23.050781 14.699219 23.050781 14.699219 23 14.601562 C 22.902344 14.566406 22.800781 14.535156 22.699219 14.5 C 22.632812 14.402344 22.566406 14.300781 22.5 14.199219 C 22.179688 14.148438 22.179688 14.148438 21.800781 14.148438 C 21.699219 14.144531 21.699219 14.144531 21.59375 14.144531 C 21.375 14.136719 21.15625 14.132812 20.9375 14.132812 C 20.789062 14.128906 20.640625 14.125 20.492188 14.121094 C 20.128906 14.113281 19.765625 14.105469 19.398438 14.101562 C 19.398438 14.066406 19.398438 14.035156 19.398438 14 C 19.679688 13.964844 19.960938 13.933594 20.242188 13.898438 C 20.359375 13.886719 20.359375 13.886719 20.480469 13.871094 C 22.222656 13.671875 22.222656 13.671875 23 14.101562 Z M 23 14.101562 "/>
<path style=" stroke:none;fill-rule:nonzero;fill:rgb(56.470591%,4.313726%,9.411765%);fill-opacity:1;" d="M 7 11.101562 C 7.148438 11.398438 7.027344 11.605469 6.9375 11.914062 C 6.878906 12.109375 6.878906 12.109375 7 12.300781 C 7.03125 12.167969 7.066406 12.035156 7.101562 11.898438 C 7.101562 12 7.101562 12.097656 7.101562 12.199219 C 7.265625 12.234375 7.429688 12.265625 7.601562 12.300781 C 7.632812 12.234375 7.664062 12.167969 7.699219 12.101562 C 7.777344 12.152344 7.855469 12.203125 7.9375 12.257812 C 8.023438 12.304688 8.109375 12.351562 8.199219 12.398438 C 8.265625 12.367188 8.332031 12.335938 8.398438 12.300781 C 8.433594 12.664062 8.464844 13.027344 8.5 13.398438 C 8.402344 13.398438 8.300781 13.398438 8.199219 13.398438 C 8.203125 13.304688 8.207031 13.210938 8.210938 13.113281 C 8.234375 12.789062 8.234375 12.789062 8 12.601562 C 7.710938 12.542969 7.710938 12.542969 7.398438 12.601562 C 6.867188 13.019531 6.597656 13.535156 6.5 14.199219 C 6.207031 13.933594 6.113281 13.738281 6.078125 13.335938 C 6.058594 12.574219 6.128906 12.027344 6.636719 11.441406 C 6.753906 11.320312 6.875 11.210938 7 11.101562 Z M 7 11.101562 "/>
<path style=" stroke:none;fill-rule:nonzero;fill:rgb(97.254902%,89.019608%,89.803922%);fill-opacity:1;" d="M 10.5 8.101562 C 10.738281 8.25 10.738281 8.25 10.898438 8.398438 C 10.867188 8.738281 10.867188 8.738281 10.800781 9.101562 C 10.449219 9.332031 10.3125 9.339844 9.898438 9.300781 C 9.824219 9.25 9.746094 9.199219 9.667969 9.148438 C 9.28125 8.933594 8.933594 8.9375 8.5 9 C 8.203125 9.132812 8.203125 9.132812 8 9.300781 C 7.96875 9.167969 7.933594 9.035156 7.898438 8.898438 C 8.304688 8.800781 8.683594 8.792969 9.101562 8.800781 C 9.101562 8.734375 9.101562 8.667969 9.101562 8.601562 C 9.199219 8.601562 9.296875 8.601562 9.398438 8.601562 C 9.433594 8.5 9.464844 8.402344 9.5 8.300781 C 9.824219 8.074219 10.113281 8.058594 10.5 8.101562 Z M 10.5 8.101562 "/>
<path style=" stroke:none;fill-rule:nonzero;fill:rgb(50.980395%,13.333334%,17.254902%);fill-opacity:1;" d="M 11.5 6.699219 C 11.714844 6.820312 11.910156 6.953125 12.113281 7.09375 C 12.421875 7.265625 12.660156 7.171875 13 7.101562 C 13.238281 7.089844 13.476562 7.082031 13.710938 7.082031 C 13.832031 7.078125 13.949219 7.078125 14.070312 7.078125 C 14.398438 7.101562 14.601562 7.175781 14.898438 7.300781 C 15.625 7.371094 16.257812 7.359375 16.898438 7 C 16.898438 7.132812 16.898438 7.265625 16.898438 7.398438 C 16.335938 7.597656 15.851562 7.609375 15.261719 7.570312 C 15.191406 7.5625 15.121094 7.558594 15.046875 7.554688 C 14.527344 7.515625 14.527344 7.515625 14.300781 7.398438 C 14.082031 7.390625 13.867188 7.386719 13.648438 7.386719 C 13.535156 7.386719 13.417969 7.386719 13.296875 7.386719 C 13.007812 7.378906 13.007812 7.378906 12.800781 7.5 C 12.316406 7.542969 12.015625 7.453125 11.601562 7.199219 C 11.566406 7.132812 11.535156 7.066406 11.5 7 C 11.070312 7 10.640625 7 10.199219 7 C 10.199219 7.066406 10.199219 7.132812 10.199219 7.199219 C 10.066406 7.167969 9.9375 7.132812 9.800781 7.101562 C 10.367188 6.769531 10.839844 6.558594 11.5 6.699219 Z M 11.5 6.699219 "/>
<path style=" stroke:none;fill-rule:nonzero;fill:rgb(97.254902%,98.431373%,98.039216%);fill-opacity:1;" d="M 8.800781 10 C 8.898438 10.066406 8.996094 10.132812 9.101562 10.199219 C 9.140625 10.503906 9.160156 10.707031 8.988281 10.96875 C 8.707031 11.164062 8.5 11.109375 8.167969 11.074219 C 8.003906 11.058594 8.003906 11.058594 7.832031 11.042969 C 7.519531 11.003906 7.210938 10.953125 6.898438 10.898438 C 6.898438 10.867188 6.898438 10.835938 6.898438 10.800781 C 7.164062 10.734375 7.429688 10.667969 7.699219 10.601562 C 7.699219 10.5 7.699219 10.402344 7.699219 10.300781 C 8.027344 9.945312 8.335938 9.957031 8.800781 10 Z M 8.800781 10 "/>
<path style=" stroke:none;fill-rule:nonzero;fill:rgb(55.686277%,3.529412%,8.627451%);fill-opacity:1;" d="M 14.398438 21.699219 C 14.398438 21.832031 14.398438 21.964844 14.398438 22.101562 C 14.464844 22.132812 14.53125 22.164062 14.601562 22.199219 C 14.535156 22.199219 14.46875 22.199219 14.398438 22.199219 C 14.367188 22.332031 14.335938 22.464844 14.300781 22.601562 C 13.796875 22.714844 13.402344 22.679688 12.898438 22.601562 C 12.933594 22.402344 12.964844 22.203125 13 22 C 13.199219 22.050781 13.199219 22.050781 13.398438 22.101562 C 13.433594 22 13.464844 21.902344 13.5 21.800781 C 13.796875 21.652344 14.074219 21.695312 14.398438 21.699219 Z M 14.398438 21.699219 "/>
<path style=" stroke:none;fill-rule:nonzero;fill:rgb(50.588238%,9.019608%,13.725491%);fill-opacity:1;" d="M 9.398438 8.898438 C 9.664062 9.039062 9.664062 9.039062 9.898438 9.199219 C 10.132812 9.273438 10.363281 9.339844 10.601562 9.398438 C 10.566406 9.464844 10.535156 9.53125 10.5 9.601562 C 10.175781 9.601562 10.082031 9.542969 9.800781 9.398438 C 9.367188 9.238281 8.957031 9.15625 8.5 9.101562 C 8.5 9.164062 8.5 9.230469 8.5 9.300781 C 8.433594 9.300781 8.367188 9.300781 8.300781 9.300781 C 8.328125 9.394531 8.328125 9.394531 8.355469 9.488281 C 8.398438 9.699219 8.398438 9.699219 8.300781 9.898438 C 8.464844 9.835938 8.628906 9.769531 8.800781 9.699219 C 8.800781 9.800781 8.800781 9.898438 8.800781 10 C 8.738281 10.011719 8.675781 10.023438 8.613281 10.035156 C 8.53125 10.054688 8.453125 10.070312 8.367188 10.085938 C 8.25 10.113281 8.25 10.113281 8.125 10.136719 C 7.875 10.195312 7.875 10.195312 7.601562 10.398438 C 7.566406 9.933594 7.605469 9.671875 7.898438 9.300781 C 8.375 8.882812 8.789062 8.804688 9.398438 8.898438 Z M 9.398438 8.898438 "/>
<path style=" stroke:none;fill-rule:nonzero;fill:rgb(50.980395%,10.196079%,15.294118%);fill-opacity:1;" d="M 12.898438 22 C 12.964844 22.066406 13.03125 22.132812 13.101562 22.199219 C 13.035156 22.199219 12.96875 22.199219 12.898438 22.199219 C 12.898438 22.332031 12.898438 22.464844 12.898438 22.601562 C 12.988281 22.597656 12.988281 22.597656 13.074219 22.59375 C 13.5625 22.582031 13.941406 22.613281 14.398438 22.800781 C 14.300781 22.867188 14.203125 22.933594 14.101562 23 C 14.035156 22.96875 13.96875 22.933594 13.898438 22.898438 C 13.5625 22.851562 13.5625 22.851562 13.199219 22.898438 C 12.925781 23.125 12.925781 23.125 12.699219 23.398438 C 12.570312 23.503906 12.4375 23.605469 12.300781 23.699219 C 12.25 23.070312 12.28125 22.707031 12.699219 22.199219 C 12.765625 22.132812 12.832031 22.066406 12.898438 22 Z M 12.898438 22 "/>
<path style=" stroke:none;fill-rule:nonzero;fill:rgb(51.372552%,10.196079%,13.725491%);fill-opacity:1;" d="M 16.800781 16.898438 C 17 17.199219 17 17.199219 17 17.398438 C 17.082031 17.367188 17.160156 17.335938 17.242188 17.300781 C 17.671875 17.179688 18.058594 17.183594 18.5 17.199219 C 18.53125 17.300781 18.566406 17.398438 18.601562 17.5 C 18.710938 17.511719 18.820312 17.519531 18.929688 17.53125 C 19.285156 17.597656 19.394531 17.621094 19.601562 17.898438 C 19.566406 18 19.535156 18.097656 19.5 18.199219 C 19.460938 18.136719 19.425781 18.070312 19.386719 18.007812 C 19.140625 17.734375 18.957031 17.738281 18.601562 17.699219 C 18.535156 17.667969 18.46875 17.632812 18.398438 17.601562 C 18.242188 17.585938 18.082031 17.574219 17.921875 17.570312 C 17.828125 17.5625 17.734375 17.558594 17.636719 17.554688 C 17.539062 17.550781 17.4375 17.546875 17.335938 17.542969 C 17.238281 17.539062 17.140625 17.535156 17.035156 17.53125 C 16.792969 17.519531 16.546875 17.511719 16.300781 17.5 C 16.300781 17.402344 16.300781 17.300781 16.300781 17.199219 C 16.550781 17.03125 16.550781 17.03125 16.800781 16.898438 Z M 16.800781 16.898438 "/>
<path style=" stroke:none;fill-rule:nonzero;fill:rgb(52.156866%,11.372549%,15.686275%);fill-opacity:1;" d="M 10.800781 12.5 C 11.195312 12.5 11.59375 12.5 12 12.5 C 12 12.566406 12 12.632812 12 12.699219 C 11.878906 12.695312 11.761719 12.691406 11.636719 12.6875 C 11.253906 12.691406 10.949219 12.726562 10.601562 12.898438 C 10.480469 13.128906 10.480469 13.128906 10.398438 13.398438 C 10.171875 13.777344 9.972656 14.058594 9.601562 14.300781 C 9.632812 14.003906 9.664062 13.707031 9.699219 13.398438 C 9.800781 13.367188 9.898438 13.335938 10 13.300781 C 10.070312 13.167969 10.136719 13.035156 10.199219 12.898438 C 10.5 12.699219 10.5 12.699219 10.800781 12.699219 C 10.800781 12.632812 10.800781 12.566406 10.800781 12.5 Z M 10.800781 12.5 "/>
<path style=" stroke:none;fill-rule:nonzero;fill:rgb(51.372552%,11.372549%,15.686275%);fill-opacity:1;" d="M 7.199219 13.800781 C 7.398438 13.800781 7.597656 13.800781 7.800781 13.800781 C 7.765625 13.933594 7.734375 14.0625 7.699219 14.199219 C 7.996094 14.234375 8.292969 14.265625 8.601562 14.300781 C 8.601562 14.332031 8.601562 14.367188 8.601562 14.398438 C 8.765625 14.433594 8.929688 14.464844 9.101562 14.5 C 9.101562 14.433594 9.101562 14.367188 9.101562 14.300781 C 9.265625 14.300781 9.429688 14.300781 9.601562 14.300781 C 9.5 14.5 9.5 14.5 9.25 14.613281 C 8.683594 14.753906 8.203125 14.78125 7.65625 14.5625 C 7.398438 14.398438 7.398438 14.398438 7.199219 14.199219 C 7.199219 14.066406 7.199219 13.9375 7.199219 13.800781 Z M 7.199219 13.800781 "/>
<path style=" stroke:none;fill-rule:nonzero;fill:rgb(52.941179%,12.941177%,16.862746%);fill-opacity:1;" d="M 16.699219 5.5 C 17.09375 5.632812 17.332031 5.785156 17.601562 6.101562 C 17.707031 6.421875 17.714844 6.667969 17.71875 7.007812 C 17.71875 7.113281 17.722656 7.21875 17.722656 7.328125 C 17.699219 7.601562 17.699219 7.601562 17.5 7.800781 C 17.46875 7.402344 17.433594 7.007812 17.398438 6.601562 C 17.300781 6.75 17.300781 6.75 17.199219 6.898438 C 17.167969 6.769531 17.132812 6.640625 17.101562 6.511719 C 17.082031 6.441406 17.0625 6.367188 17.042969 6.292969 C 17 6.101562 17 6.101562 17 5.898438 C 16.902344 5.835938 16.800781 5.769531 16.699219 5.699219 C 16.699219 5.632812 16.699219 5.566406 16.699219 5.5 Z M 17 6.898438 C 17.097656 6.949219 17.097656 6.949219 17.199219 7 C 17.101562 7.050781 17.101562 7.050781 17 7.101562 C 17 7.035156 17 6.96875 17 6.898438 Z M 17 6.898438 "/>
<path style=" stroke:none;fill-rule:nonzero;fill:rgb(51.764709%,15.294118%,19.215687%);fill-opacity:1;" d="M 19.101562 10.800781 C 19.164062 10.898438 19.230469 10.996094 19.300781 11.101562 C 19.246094 11.1875 19.246094 11.1875 19.191406 11.277344 C 18.808594 11.953125 18.675781 12.527344 18.800781 13.300781 C 18.90625 13.574219 19.027344 13.761719 19.199219 14 C 19.101562 14.066406 19.003906 14.132812 18.898438 14.199219 C 18.835938 14.132812 18.769531 14.066406 18.699219 14 C 18.699219 13.867188 18.699219 13.734375 18.699219 13.601562 C 18.667969 13.433594 18.636719 13.265625 18.601562 13.101562 C 18.535156 13.101562 18.46875 13.101562 18.398438 13.101562 C 18.410156 12.910156 18.417969 12.714844 18.429688 12.523438 C 18.4375 12.417969 18.441406 12.3125 18.449219 12.203125 C 18.519531 11.78125 18.707031 11.59375 19 11.300781 C 19.066406 11.042969 19.066406 11.042969 19.101562 10.800781 Z M 19.101562 10.800781 "/>
<path style=" stroke:none;fill-rule:nonzero;fill:rgb(50.980395%,10.196079%,15.294118%);fill-opacity:1;" d="M 17 8 C 17.132812 8.03125 17.265625 8.066406 17.398438 8.101562 C 16.925781 8.554688 16.519531 8.71875 15.886719 8.867188 C 15.730469 8.910156 15.570312 8.949219 15.410156 8.988281 C 15.34375 9.003906 15.273438 9.023438 15.199219 9.039062 C 14.984375 9.105469 14.796875 9.195312 14.601562 9.300781 C 14.601562 9.234375 14.601562 9.167969 14.601562 9.101562 C 14.664062 9.101562 14.730469 9.101562 14.800781 9.101562 C 14.800781 9.035156 14.800781 8.96875 14.800781 8.898438 C 14.964844 8.867188 15.128906 8.835938 15.300781 8.800781 C 15.300781 8.734375 15.300781 8.667969 15.300781 8.601562 C 15.410156 8.570312 15.519531 8.539062 15.632812 8.507812 C 15.855469 8.441406 16.078125 8.375 16.300781 8.300781 C 16.5 8.328125 16.703125 8.359375 16.898438 8.398438 C 16.933594 8.269531 16.964844 8.136719 17 8 Z M 17 8 "/>
<path style=" stroke:none;fill-rule:nonzero;fill:rgb(48.235294%,11.372549%,15.686275%);fill-opacity:1;" d="M 18.300781 10.398438 C 18.398438 10.699219 18.398438 10.699219 18.28125 10.957031 C 18.09375 11.207031 17.980469 11.277344 17.699219 11.398438 C 17.667969 11.464844 17.632812 11.53125 17.601562 11.601562 C 16.871094 11.71875 16.007812 11.835938 15.300781 11.601562 C 15.300781 11.5 15.300781 11.402344 15.300781 11.300781 C 15.402344 11.324219 15.402344 11.324219 15.507812 11.347656 C 15.839844 11.40625 16.160156 11.421875 16.5 11.425781 C 16.621094 11.425781 16.738281 11.429688 16.863281 11.433594 C 17.316406 11.386719 17.5625 11.238281 17.878906 10.917969 C 17.929688 10.855469 17.980469 10.792969 18.03125 10.730469 C 18.109375 10.636719 18.109375 10.636719 18.1875 10.542969 C 18.222656 10.496094 18.261719 10.449219 18.300781 10.398438 Z M 18.300781 10.398438 "/>
<path style=" stroke:none;fill-rule:nonzero;fill:rgb(47.450981%,12.54902%,16.862746%);fill-opacity:1;" d="M 14.398438 23.300781 C 14.414062 23.363281 14.425781 23.429688 14.4375 23.492188 C 14.457031 23.5625 14.480469 23.628906 14.5 23.699219 C 14.566406 23.734375 14.632812 23.765625 14.699219 23.800781 C 14.335938 24.101562 14.335938 24.101562 14 24.101562 C 14 24.164062 14 24.230469 14 24.300781 C 14.644531 24.25 14.644531 24.25 15.300781 24.199219 C 15.199219 24.398438 15.199219 24.398438 15.023438 24.460938 C 14.792969 24.5 14.578125 24.519531 14.34375 24.523438 C 14.265625 24.527344 14.191406 24.53125 14.113281 24.53125 C 13.847656 24.492188 13.761719 24.410156 13.601562 24.199219 C 13.601562 24.132812 13.601562 24.066406 13.601562 24 C 13.714844 23.957031 13.828125 23.917969 13.945312 23.875 C 14.308594 23.742188 14.308594 23.742188 14.394531 23.480469 C 14.394531 23.421875 14.398438 23.363281 14.398438 23.300781 Z M 14.398438 23.300781 "/>
<path style=" stroke:none;fill-rule:nonzero;fill:rgb(50.980395%,14.117648%,19.215687%);fill-opacity:1;" d="M 12 14.699219 C 12 14.832031 12 14.964844 12 15.101562 C 12.660156 15.132812 13.320312 15.164062 14 15.199219 C 13.746094 15.453125 13.582031 15.425781 13.238281 15.425781 C 13.164062 15.425781 13.09375 15.425781 13.019531 15.425781 C 12.949219 15.425781 12.875 15.425781 12.804688 15.425781 C 12.390625 15.425781 12.0625 15.394531 11.699219 15.199219 C 11.46875 14.9375 11.46875 14.9375 11.300781 14.699219 C 11.773438 14.585938 11.773438 14.585938 12 14.699219 Z M 12 14.699219 "/>
<path style=" stroke:none;fill-rule:nonzero;fill:rgb(96.078432%,87.058824%,88.235295%);fill-opacity:1;" d="M 12.199219 22.300781 C 12.300781 22.332031 12.398438 22.367188 12.5 22.398438 C 12.484375 22.449219 12.46875 22.5 12.449219 22.550781 C 12.378906 22.902344 12.394531 23.238281 12.398438 23.601562 C 12.597656 23.367188 12.796875 23.136719 13 22.898438 C 13.066406 22.933594 13.132812 22.964844 13.199219 23 C 12.925781 23.488281 12.925781 23.488281 12.699219 23.601562 C 12.585938 23.800781 12.585938 23.800781 12.5 24 C 12.304688 23.960938 12.304688 23.960938 12.101562 23.898438 C 12.066406 23.835938 12.035156 23.769531 12 23.699219 C 12.066406 23.699219 12.132812 23.699219 12.199219 23.699219 C 12.191406 23.640625 12.1875 23.578125 12.179688 23.515625 C 12.167969 23.4375 12.160156 23.355469 12.148438 23.273438 C 12.140625 23.195312 12.132812 23.117188 12.121094 23.035156 C 12.101562 22.800781 12.101562 22.800781 12.101562 22.398438 C 12.132812 22.367188 12.164062 22.335938 12.199219 22.300781 Z M 12.199219 22.300781 "/>
<path style=" stroke:none;fill-rule:nonzero;fill:rgb(98.039216%,92.941177%,92.54902%);fill-opacity:1;" d="M 19.199219 8.300781 C 19.300781 8.332031 19.398438 8.367188 19.5 8.398438 C 19.53125 8.566406 19.566406 8.730469 19.601562 8.898438 C 19.699219 8.867188 19.796875 8.835938 19.898438 8.800781 C 19.871094 9.019531 19.84375 9.242188 19.8125 9.460938 C 19.796875 9.585938 19.78125 9.707031 19.761719 9.835938 C 19.703125 10.175781 19.617188 10.476562 19.5 10.800781 C 19.394531 10.464844 19.398438 10.175781 19.414062 9.824219 C 19.417969 9.273438 19.328125 8.898438 19.101562 8.398438 C 19.132812 8.367188 19.164062 8.335938 19.199219 8.300781 Z M 19.199219 8.300781 "/>
<path style=" stroke:none;fill-rule:nonzero;fill:rgb(98.039216%,89.019608%,89.803922%);fill-opacity:1;" d="M 18.699219 12.101562 C 18.734375 12.101562 18.765625 12.101562 18.800781 12.101562 C 18.832031 12.363281 18.867188 12.628906 18.898438 12.898438 C 18.964844 12.898438 19.03125 12.898438 19.101562 12.898438 C 19.164062 13.195312 19.230469 13.492188 19.300781 13.800781 C 19.730469 13.832031 20.15625 13.867188 20.601562 13.898438 C 20.601562 13.933594 20.601562 13.964844 20.601562 14 C 20.375 14.011719 20.148438 14.023438 19.925781 14.03125 C 19.800781 14.035156 19.675781 14.042969 19.546875 14.050781 C 19.199219 14 19.199219 14 18.960938 13.761719 C 18.714844 13.363281 18.6875 13.15625 18.695312 12.6875 C 18.695312 12.578125 18.695312 12.46875 18.695312 12.355469 C 18.699219 12.269531 18.699219 12.1875 18.699219 12.101562 Z M 18.699219 12.101562 "/>
<path style=" stroke:none;fill-rule:nonzero;fill:rgb(97.647059%,90.196079%,89.803922%);fill-opacity:1;" d="M 6.199219 11.5 C 6.417969 11.535156 6.417969 11.535156 6.601562 11.601562 C 6.535156 11.703125 6.46875 11.804688 6.398438 11.914062 C 6.09375 12.507812 6.167969 13.148438 6.199219 13.800781 C 6.132812 13.765625 6.066406 13.734375 6 13.699219 C 5.957031 13.472656 5.921875 13.242188 5.894531 13.011719 C 5.832031 12.5 5.832031 12.5 5.699219 12 C 5.925781 11.742188 5.925781 11.742188 6.199219 11.5 Z M 6.199219 11.5 "/>
<path style=" stroke:none;fill-rule:nonzero;fill:rgb(97.254902%,86.274511%,87.843138%);fill-opacity:1;" d="M 16.601562 5.5 C 16.902344 5.800781 16.921875 6.089844 16.9375 6.5 C 16.9375 6.769531 16.9375 6.769531 16.898438 7 C 16.664062 7.207031 16.664062 7.207031 16.398438 7.300781 C 16.335938 7.332031 16.269531 7.367188 16.199219 7.398438 C 16 7.402344 15.800781 7.40625 15.601562 7.398438 C 15.78125 7.242188 15.78125 7.242188 16 7.101562 C 16.097656 7.132812 16.199219 7.164062 16.300781 7.199219 C 16.300781 7.132812 16.300781 7.066406 16.300781 7 C 16.398438 6.933594 16.496094 6.867188 16.601562 6.800781 C 16.636719 6.488281 16.636719 6.488281 16.617188 6.136719 C 16.613281 5.960938 16.613281 5.960938 16.609375 5.777344 C 16.605469 5.6875 16.605469 5.59375 16.601562 5.5 Z M 16.601562 5.5 "/>
<path style=" stroke:none;fill-rule:nonzero;fill:rgb(98.039216%,87.843138%,89.411765%);fill-opacity:1;" d="M 15.800781 23.800781 C 15.898438 24.101562 15.898438 24.101562 15.898438 24.398438 C 15.523438 24.601562 15.523438 24.601562 15.300781 24.601562 C 15.046875 24.652344 14.792969 24.710938 14.539062 24.765625 C 14.300781 24.800781 14.300781 24.800781 14 24.699219 C 14 24.632812 14 24.566406 14 24.5 C 14.121094 24.488281 14.121094 24.488281 14.242188 24.472656 C 14.917969 24.382812 15.328125 24.300781 15.800781 23.800781 Z M 15.800781 23.800781 "/>
<path style=" stroke:none;fill-rule:nonzero;fill:rgb(51.764709%,9.411765%,14.509805%);fill-opacity:1;" d="M 16.800781 15.101562 C 17.039062 15.164062 17.039062 15.164062 17.300781 15.300781 C 17.507812 15.722656 17.683594 16.253906 17.527344 16.710938 C 17.417969 16.875 17.417969 16.875 17.199219 17.101562 C 17.132812 17.066406 17.066406 17.035156 17 17 C 17 16.699219 17 16.699219 17.199219 16.398438 C 17.171875 15.898438 17.042969 15.535156 16.800781 15.101562 Z M 16.800781 15.101562 "/>
<path style=" stroke:none;fill-rule:nonzero;fill:rgb(50.196081%,14.509805%,18.039216%);fill-opacity:1;" d="M 6.101562 12.398438 C 6.132812 12.398438 6.164062 12.398438 6.199219 12.398438 C 6.234375 12.730469 6.265625 13.058594 6.300781 13.398438 C 6.332031 13.398438 6.367188 13.398438 6.398438 13.398438 C 6.464844 13.203125 6.53125 13.003906 6.601562 12.800781 C 6.699219 12.832031 6.796875 12.867188 6.898438 12.898438 C 6.871094 12.964844 6.84375 13.03125 6.8125 13.101562 C 6.675781 13.460938 6.589844 13.824219 6.5 14.199219 C 6.273438 13.996094 6.199219 13.898438 6.101562 13.601562 C 6.09375 13.394531 6.089844 13.1875 6.09375 12.980469 C 6.09375 12.871094 6.09375 12.765625 6.097656 12.652344 C 6.097656 12.570312 6.097656 12.484375 6.101562 12.398438 Z M 6.101562 12.398438 "/>
<path style=" stroke:none;fill-rule:nonzero;fill:rgb(95.686275%,85.09804%,85.09804%);fill-opacity:1;" d="M 11.199219 12.601562 C 11.957031 12.601562 11.957031 12.601562 12.269531 12.816406 C 12.519531 13.085938 12.601562 13.300781 12.648438 13.664062 C 12.597656 14.007812 12.539062 14.152344 12.300781 14.398438 C 12.28125 14.039062 12.3125 13.8125 12.5 13.5 C 12.402344 13.53125 12.300781 13.566406 12.199219 13.601562 C 12.1875 13.523438 12.171875 13.441406 12.15625 13.363281 C 12.113281 13.105469 12.113281 13.105469 12 12.898438 C 11.8125 12.832031 11.8125 12.832031 11.59375 12.789062 C 11.519531 12.769531 11.445312 12.753906 11.371094 12.738281 C 11.316406 12.722656 11.257812 12.710938 11.199219 12.699219 C 11.199219 12.667969 11.199219 12.632812 11.199219 12.601562 Z M 11.199219 12.601562 "/>
<path style=" stroke:none;fill-rule:nonzero;fill:rgb(49.803922%,11.764706%,16.470589%);fill-opacity:1;" d="M 11.5 6.699219 C 11.726562 6.800781 11.726562 6.800781 11.898438 6.898438 C 11.898438 6.964844 11.898438 7.03125 11.898438 7.101562 C 11.800781 7.132812 11.703125 7.164062 11.601562 7.199219 C 11.566406 7.132812 11.535156 7.066406 11.5 7 C 11.070312 7 10.640625 7 10.199219 7 C 10.199219 7.066406 10.199219 7.132812 10.199219 7.199219 C 10.066406 7.167969 9.9375 7.132812 9.800781 7.101562 C 10.375 6.765625 10.832031 6.59375 11.5 6.699219 Z M 11.5 6.699219 "/>
<path style=" stroke:none;fill-rule:nonzero;fill:rgb(50.196081%,13.725491%,18.039216%);fill-opacity:1;" d="M 9.699219 7.199219 C 9.761719 7.382812 9.761719 7.382812 9.800781 7.601562 C 9.699219 7.75 9.699219 7.75 9.601562 7.898438 C 9.863281 7.898438 10.128906 7.898438 10.398438 7.898438 C 10.398438 7.964844 10.398438 8.03125 10.398438 8.101562 C 10.335938 8.121094 10.273438 8.140625 10.210938 8.164062 C 10.128906 8.1875 10.046875 8.214844 9.960938 8.242188 C 9.882812 8.269531 9.800781 8.296875 9.714844 8.324219 C 9.5 8.394531 9.5 8.394531 9.300781 8.5 C 9.253906 7.929688 9.347656 7.652344 9.699219 7.199219 Z M 9.699219 7.199219 "/>
<path style=" stroke:none;fill-rule:nonzero;fill:rgb(97.647059%,98.431373%,98.039216%);fill-opacity:1;" d="M 9.601562 8.5 C 9.898438 8.5 10.195312 8.5 10.5 8.5 C 10.5 8.566406 10.5 8.632812 10.5 8.699219 C 10.566406 8.699219 10.632812 8.699219 10.699219 8.699219 C 10.699219 8.765625 10.699219 8.832031 10.699219 8.898438 C 10.5 9.101562 10.5 9.101562 10.300781 9.199219 C 10.050781 9.089844 9.832031 8.941406 9.601562 8.800781 C 9.601562 8.699219 9.601562 8.601562 9.601562 8.5 Z M 9.601562 8.5 "/>
<path style=" stroke:none;fill-rule:nonzero;fill:rgb(97.647059%,91.37255%,92.54902%);fill-opacity:1;" d="M 18 19.800781 C 18.132812 19.832031 18.265625 19.867188 18.398438 19.898438 C 18.226562 20.078125 18.050781 20.257812 17.875 20.4375 C 17.824219 20.488281 17.777344 20.539062 17.726562 20.589844 C 17.46875 20.851562 17.242188 21.066406 16.898438 21.199219 C 17.011719 20.945312 17.136719 20.757812 17.3125 20.539062 C 17.519531 20.324219 17.519531 20.324219 17.5 20.101562 C 17.5625 20.085938 17.628906 20.074219 17.695312 20.0625 C 17.761719 20.042969 17.828125 20.019531 17.898438 20 C 17.933594 19.933594 17.964844 19.867188 18 19.800781 Z M 18 19.800781 "/>
<path style=" stroke:none;fill-rule:nonzero;fill:rgb(96.078432%,86.274511%,86.666667%);fill-opacity:1;" d="M 8.398438 10.601562 C 8.433594 10.664062 8.464844 10.730469 8.5 10.800781 C 8.703125 10.863281 8.703125 10.863281 8.898438 10.898438 C 8.867188 10.964844 8.835938 11.03125 8.800781 11.101562 C 8.597656 11.085938 8.390625 11.070312 8.1875 11.054688 C 8.074219 11.046875 7.960938 11.039062 7.84375 11.03125 C 7.523438 11.003906 7.214844 10.957031 6.898438 10.898438 C 6.898438 10.867188 6.898438 10.835938 6.898438 10.800781 C 7.09375 10.765625 7.289062 10.734375 7.480469 10.699219 C 7.644531 10.671875 7.644531 10.671875 7.808594 10.644531 C 8.101562 10.601562 8.101562 10.601562 8.398438 10.601562 Z M 8.398438 10.601562 "/>
<path style=" stroke:none;fill-rule:nonzero;fill:rgb(97.647059%,89.411765%,90.588236%);fill-opacity:1;" d="M 13.199219 22.800781 C 14.039062 22.769531 14.039062 22.769531 14.300781 23 C 14.375 23.363281 14.375 23.363281 14.398438 23.699219 C 14.152344 23.847656 14.152344 23.847656 13.898438 24 C 13.867188 23.800781 13.835938 23.605469 13.800781 23.398438 C 13.867188 23.367188 13.933594 23.335938 14 23.300781 C 13.761719 23.011719 13.570312 22.949219 13.199219 22.898438 C 13.199219 22.867188 13.199219 22.835938 13.199219 22.800781 Z M 13.199219 22.800781 "/>
<path style=" stroke:none;fill-rule:nonzero;fill:rgb(50.980395%,10.980392%,14.901961%);fill-opacity:1;" d="M 16.5 22.601562 C 16.597656 22.664062 16.699219 22.730469 16.800781 22.800781 C 16.367188 23.320312 15.921875 23.773438 15.398438 24.199219 C 15.398438 24.066406 15.398438 23.9375 15.398438 23.800781 C 15.5 23.800781 15.597656 23.800781 15.699219 23.800781 C 15.667969 23.699219 15.632812 23.601562 15.601562 23.5 C 15.898438 23.300781 15.898438 23.300781 16.101562 23.300781 C 16.230469 23.070312 16.363281 22.839844 16.5 22.601562 Z M 16.5 22.601562 "/>
<path style=" stroke:none;fill-rule:nonzero;fill:rgb(56.862748%,22.352941%,26.666668%);fill-opacity:1;" d="M 18.699219 8.101562 C 18.863281 8.230469 19.03125 8.363281 19.199219 8.5 C 19.167969 8.566406 19.132812 8.632812 19.101562 8.699219 C 19.035156 8.667969 18.96875 8.632812 18.898438 8.601562 C 18.914062 8.691406 18.914062 8.691406 18.929688 8.78125 C 18.941406 8.863281 18.949219 8.941406 18.960938 9.023438 C 18.972656 9.105469 18.984375 9.183594 18.996094 9.265625 C 19 9.53125 18.9375 9.671875 18.800781 9.898438 C 18.734375 9.898438 18.667969 9.898438 18.601562 9.898438 C 18.648438 9.007812 18.648438 9.007812 18.699219 8.101562 Z M 18.699219 8.101562 "/>
<path style=" stroke:none;fill-rule:nonzero;fill:rgb(97.647059%,97.254902%,95.294118%);fill-opacity:1;" d="M 10 8.199219 C 10.789062 8.289062 10.789062 8.289062 10.898438 8.398438 C 10.871094 8.632812 10.839844 8.867188 10.800781 9.101562 C 10.667969 9.101562 10.535156 9.101562 10.398438 9.101562 C 10.433594 9.035156 10.464844 8.96875 10.5 8.898438 C 10.566406 8.898438 10.632812 8.898438 10.699219 8.898438 C 10.699219 8.835938 10.699219 8.769531 10.699219 8.699219 C 10.632812 8.699219 10.566406 8.699219 10.5 8.699219 C 10.5 8.632812 10.5 8.566406 10.5 8.5 C 10.300781 8.53125 10.105469 8.566406 9.898438 8.601562 C 9.933594 8.46875 9.964844 8.335938 10 8.199219 Z M 10 8.199219 "/>
<path style=" stroke:none;fill-rule:nonzero;fill:rgb(97.254902%,89.411765%,89.803922%);fill-opacity:1;" d="M 18.898438 21.5 C 18.894531 21.675781 18.894531 21.675781 18.800781 21.898438 C 18.445312 22.132812 18.125 22.332031 17.699219 22.398438 C 17.699219 22.300781 17.699219 22.203125 17.699219 22.101562 C 17.910156 21.9375 17.910156 21.9375 18.1875 21.78125 C 18.277344 21.726562 18.367188 21.675781 18.460938 21.621094 C 18.699219 21.5 18.699219 21.5 18.898438 21.5 Z M 18.898438 21.5 "/>
<path style=" stroke:none;fill-rule:nonzero;fill:rgb(50.196081%,13.725491%,17.647059%);fill-opacity:1;" d="M 21.398438 19.300781 C 21.433594 19.398438 21.464844 19.496094 21.5 19.601562 C 21.21875 20.152344 20.804688 20.453125 20.300781 20.800781 C 20.300781 20.699219 20.300781 20.601562 20.300781 20.5 C 20.433594 20.46875 20.5625 20.433594 20.699219 20.398438 C 20.699219 20.269531 20.699219 20.136719 20.699219 20 C 20.832031 19.933594 20.964844 19.867188 21.101562 19.800781 C 21.066406 19.699219 21.035156 19.601562 21 19.5 C 21.132812 19.433594 21.265625 19.367188 21.398438 19.300781 Z M 21.398438 19.300781 "/>
<path style=" stroke:none;fill-rule:nonzero;fill:rgb(96.470588%,96.078432%,96.470588%);fill-opacity:1;" d="M 5.699219 13.5 C 6.355469 13.898438 6.355469 13.898438 6.5 14.300781 C 6.199219 14.398438 6.199219 14.398438 5.800781 14.398438 C 5.765625 14.101562 5.734375 13.804688 5.699219 13.5 Z M 5.699219 13.5 "/>
<path style=" stroke:none;fill-rule:nonzero;fill:rgb(47.843137%,14.117648%,18.039216%);fill-opacity:1;" d="M 19.199219 8.699219 C 19.53125 9.03125 19.515625 9.34375 19.519531 9.792969 C 19.519531 9.898438 19.523438 10 19.523438 10.109375 C 19.5 10.398438 19.5 10.398438 19.300781 10.800781 C 19.300781 10.371094 19.300781 9.941406 19.300781 9.5 C 19.234375 9.46875 19.167969 9.433594 19.101562 9.398438 C 19.132812 9.167969 19.164062 8.9375 19.199219 8.699219 Z M 19.199219 8.699219 "/>
<path style=" stroke:none;fill-rule:nonzero;fill:rgb(52.941179%,10.588235%,15.686275%);fill-opacity:1;" d="M 19 21 C 19.164062 21 19.328125 21 19.5 21 C 19.5 21.066406 19.5 21.132812 19.5 21.199219 C 18.855469 21.496094 18.855469 21.496094 18.199219 21.800781 C 18.167969 21.734375 18.132812 21.667969 18.101562 21.601562 C 18.265625 21.566406 18.429688 21.535156 18.601562 21.5 C 18.601562 21.433594 18.601562 21.367188 18.601562 21.300781 C 18.535156 21.265625 18.46875 21.234375 18.398438 21.199219 C 18.773438 21.085938 18.773438 21.085938 19 21.199219 C 19 21.132812 19 21.066406 19 21 Z M 19 21 "/>
<path style=" stroke:none;fill-rule:nonzero;fill:rgb(96.470588%,88.235295%,88.627452%);fill-opacity:1;" d="M 19.199219 18 C 19.234375 18 19.265625 18 19.300781 18 C 19.246094 18.796875 18.992188 19.25 18.398438 19.800781 C 18.464844 19.507812 18.566406 19.269531 18.699219 19 C 18.699219 18.933594 18.699219 18.867188 18.699219 18.800781 C 18.765625 18.800781 18.832031 18.800781 18.898438 18.800781 C 18.929688 18.6875 18.960938 18.574219 18.992188 18.457031 C 19.101562 18.101562 19.101562 18.101562 19.199219 18 Z M 19.199219 18 "/>
<path style=" stroke:none;fill-rule:nonzero;fill:rgb(98.431373%,89.411765%,90.588236%);fill-opacity:1;" d="M 14.398438 15 C 14.433594 15.066406 14.464844 15.132812 14.5 15.199219 C 14.398438 15.398438 14.398438 15.398438 14.09375 15.519531 C 13.644531 15.621094 13.210938 15.601562 12.757812 15.574219 C 12.683594 15.570312 12.613281 15.566406 12.539062 15.5625 C 12.355469 15.550781 12.179688 15.527344 12 15.5 C 11.96875 15.433594 11.933594 15.367188 11.898438 15.300781 C 12.09375 15.304688 12.09375 15.304688 12.292969 15.3125 C 12.46875 15.3125 12.640625 15.316406 12.8125 15.320312 C 12.898438 15.320312 12.984375 15.324219 13.070312 15.328125 C 13.59375 15.332031 13.941406 15.285156 14.398438 15 Z M 14.398438 15 "/>
<path style=" stroke:none;fill-rule:nonzero;fill:rgb(50.588238%,13.725491%,18.039216%);fill-opacity:1;" d="M 21.199219 17 C 21.234375 17 21.265625 17 21.300781 17 C 21.484375 17.777344 21.640625 18.5 21.601562 19.300781 C 21.203125 18.542969 21.171875 17.839844 21.199219 17 Z M 21.199219 17 "/>
<path style=" stroke:none;fill-rule:nonzero;fill:rgb(49.411765%,9.411765%,13.725491%);fill-opacity:1;" d="M 22.898438 14.699219 C 22.964844 14.765625 23.03125 14.832031 23.101562 14.898438 C 23.042969 14.894531 22.984375 14.890625 22.929688 14.886719 C 22.320312 14.859375 22 14.953125 21.5 15.300781 C 21.433594 15.367188 21.367188 15.433594 21.300781 15.5 C 21.234375 15.5 21.167969 15.5 21.101562 15.5 C 21.21875 15.25 21.34375 15.03125 21.5 14.800781 C 21.933594 14.65625 22.449219 14.648438 22.898438 14.699219 Z M 22.898438 14.699219 "/>
<path style=" stroke:none;fill-rule:nonzero;fill:rgb(96.470588%,86.274511%,87.450981%);fill-opacity:1;" d="M 10.898438 12.699219 C 10.964844 12.734375 11.03125 12.765625 11.101562 12.800781 C 10.96875 13.03125 10.835938 13.261719 10.699219 13.5 C 10.632812 13.5 10.566406 13.5 10.5 13.5 C 10.46875 13.632812 10.433594 13.765625 10.398438 13.898438 C 10.300781 13.867188 10.203125 13.835938 10.101562 13.800781 C 10.175781 13.652344 10.253906 13.507812 10.332031 13.363281 C 10.375 13.28125 10.417969 13.199219 10.460938 13.117188 C 10.601562 12.898438 10.601562 12.898438 10.898438 12.699219 Z M 10.898438 12.699219 "/>
<path style=" stroke:none;fill-rule:nonzero;fill:rgb(95.294118%,85.490197%,85.09804%);fill-opacity:1;" d="M 23.699219 14.898438 C 23.847656 15 23.847656 15 24 15.101562 C 24.035156 15.390625 24.035156 15.390625 24.03125 15.738281 C 24.03125 15.851562 24.03125 15.964844 24.03125 16.082031 C 24 16.378906 23.953125 16.550781 23.800781 16.800781 C 23.734375 16.800781 23.667969 16.800781 23.601562 16.800781 C 23.648438 16.652344 23.648438 16.652344 23.699219 16.5 C 23.707031 16.226562 23.710938 15.953125 23.707031 15.679688 C 23.707031 15.570312 23.707031 15.570312 23.703125 15.453125 C 23.703125 15.269531 23.703125 15.085938 23.699219 14.898438 Z M 23.699219 14.898438 "/>
<path style=" stroke:none;fill-rule:nonzero;fill:rgb(46.27451%,7.058824%,13.333334%);fill-opacity:1;" d="M 23.601562 15.300781 C 23.664062 15.332031 23.730469 15.367188 23.800781 15.398438 C 23.800781 15.761719 23.800781 16.125 23.800781 16.5 C 23.601562 16.597656 23.601562 16.597656 23.398438 16.699219 C 23.414062 16.484375 23.429688 16.269531 23.445312 16.054688 C 23.453125 15.9375 23.460938 15.816406 23.46875 15.695312 C 23.5 15.398438 23.5 15.398438 23.601562 15.300781 Z M 23.601562 15.300781 "/>
<path style=" stroke:none;fill-rule:nonzero;fill:rgb(98.431373%,86.666667%,88.235295%);fill-opacity:1;" d="M 8.800781 10 C 8.898438 10.066406 8.996094 10.132812 9.101562 10.199219 C 9.117188 10.511719 9.117188 10.511719 9.101562 10.800781 C 8.898438 10.5 8.898438 10.5 8.898438 10.300781 C 8.636719 10.265625 8.371094 10.234375 8.101562 10.199219 C 8.066406 10.300781 8.035156 10.398438 8 10.5 C 7.902344 10.433594 7.800781 10.367188 7.699219 10.300781 C 8.050781 9.964844 8.324219 9.957031 8.800781 10 Z M 8.800781 10 "/>
<path style=" stroke:none;fill-rule:nonzero;fill:rgb(98.823529%,94.509804%,94.117647%);fill-opacity:1;" d="M 18.601562 8.101562 C 18.632812 8.101562 18.664062 8.101562 18.699219 8.101562 C 18.707031 8.359375 18.710938 8.621094 18.710938 8.882812 C 18.714844 8.953125 18.714844 9.027344 18.71875 9.105469 C 18.722656 9.492188 18.71875 9.671875 18.5 10 C 18.476562 9.796875 18.457031 9.589844 18.4375 9.386719 C 18.425781 9.273438 18.414062 9.160156 18.402344 9.042969 C 18.398438 8.683594 18.46875 8.433594 18.601562 8.101562 Z M 18.601562 8.101562 "/>
<path style=" stroke:none;fill-rule:nonzero;fill:rgb(52.549022%,22.745098%,25.882354%);fill-opacity:1;" d="M 16.800781 16.898438 C 17 17.199219 17 17.199219 17 17.398438 C 17.265625 17.398438 17.527344 17.398438 17.800781 17.398438 C 17.800781 17.433594 17.800781 17.464844 17.800781 17.5 C 17.304688 17.5 16.808594 17.5 16.300781 17.5 C 16.300781 17.402344 16.300781 17.300781 16.300781 17.199219 C 16.550781 17.03125 16.550781 17.03125 16.800781 16.898438 Z M 16.800781 16.898438 "/>
<path style=" stroke:none;fill-rule:nonzero;fill:rgb(53.725493%,14.509805%,19.607843%);fill-opacity:1;" d="M 18.101562 20.101562 C 18.199219 20.300781 18.199219 20.300781 18.144531 20.539062 C 17.957031 20.875 17.730469 21.007812 17.398438 21.199219 C 17.300781 21.132812 17.203125 21.066406 17.101562 21 C 17.15625 20.953125 17.210938 20.902344 17.269531 20.855469 C 17.339844 20.789062 17.414062 20.726562 17.488281 20.664062 C 17.558594 20.601562 17.632812 20.539062 17.707031 20.472656 C 17.839844 20.351562 17.972656 20.226562 18.101562 20.101562 Z M 18.101562 20.101562 "/>
<path style=" stroke:none;fill-rule:nonzero;fill:rgb(48.627451%,11.372549%,16.862746%);fill-opacity:1;" d="M 8.199219 12.398438 C 8.265625 12.367188 8.332031 12.335938 8.398438 12.300781 C 8.433594 12.664062 8.464844 13.027344 8.5 13.398438 C 8.402344 13.398438 8.300781 13.398438 8.199219 13.398438 C 8.203125 13.304688 8.207031 13.210938 8.210938 13.113281 C 8.234375 12.789062 8.234375 12.789062 8 12.601562 C 7.640625 12.582031 7.640625 12.582031 7.300781 12.601562 C 7.300781 12.535156 7.300781 12.46875 7.300781 12.398438 C 7.636719 12.289062 7.859375 12.328125 8.199219 12.398438 Z M 8.199219 12.398438 "/>
<path style=" stroke:none;fill-rule:nonzero;fill:rgb(97.647059%,86.274511%,88.235295%);fill-opacity:1;" d="M 22.320312 14.886719 C 22.507812 14.894531 22.507812 14.894531 22.699219 14.898438 C 22.414062 15.132812 22.148438 15.273438 21.800781 15.398438 C 21.707031 15.4375 21.613281 15.472656 21.519531 15.511719 C 21.445312 15.542969 21.375 15.570312 21.300781 15.601562 C 21.5625 15.125 21.753906 14.867188 22.320312 14.886719 Z M 22.320312 14.886719 "/>
<path style=" stroke:none;fill-rule:nonzero;fill:rgb(50.196081%,10.980392%,14.509805%);fill-opacity:1;" d="M 18.398438 12.601562 C 18.464844 12.601562 18.53125 12.601562 18.601562 12.601562 C 18.625 12.675781 18.652344 12.75 18.679688 12.832031 C 18.714844 12.929688 18.75 13.027344 18.789062 13.132812 C 18.824219 13.230469 18.855469 13.328125 18.894531 13.429688 C 18.996094 13.714844 18.996094 13.714844 19.199219 14 C 19.101562 14.066406 19.003906 14.132812 18.898438 14.199219 C 18.835938 14.132812 18.769531 14.066406 18.699219 14 C 18.699219 13.867188 18.699219 13.734375 18.699219 13.601562 C 18.667969 13.433594 18.636719 13.265625 18.601562 13.101562 C 18.535156 13.101562 18.46875 13.101562 18.398438 13.101562 C 18.398438 12.933594 18.398438 12.769531 18.398438 12.601562 Z M 18.398438 12.601562 "/>
<path style=" stroke:none;fill-rule:nonzero;fill:rgb(49.803922%,15.294118%,19.607843%);fill-opacity:1;" d="M 14.324219 21.488281 C 14.414062 21.488281 14.503906 21.492188 14.59375 21.492188 C 14.695312 21.496094 14.695312 21.496094 14.800781 21.5 C 14.511719 21.65625 14.246094 21.746094 13.925781 21.8125 C 13.84375 21.828125 13.765625 21.847656 13.683594 21.863281 C 13.621094 21.875 13.5625 21.886719 13.5 21.898438 C 13.5 22 13.5 22.097656 13.5 22.199219 C 13.253906 22.101562 13.253906 22.101562 13 22 C 13.445312 21.648438 13.75 21.472656 14.324219 21.488281 Z M 14.324219 21.488281 "/>
<path style=" stroke:none;fill-rule:nonzero;fill:rgb(54.11765%,11.372549%,16.470589%);fill-opacity:1;" d="M 18.898438 19.199219 C 18.933594 19.300781 18.964844 19.398438 19 19.5 C 19.066406 19.53125 19.132812 19.566406 19.199219 19.601562 C 18.890625 19.96875 18.675781 20.058594 18.199219 20.101562 C 18.296875 19.96875 18.394531 19.835938 18.492188 19.707031 C 18.546875 19.632812 18.601562 19.558594 18.660156 19.484375 C 18.800781 19.300781 18.800781 19.300781 18.898438 19.199219 Z M 18.898438 19.199219 "/>
<path style=" stroke:none;fill-rule:nonzero;fill:rgb(96.862745%,86.666667%,87.450981%);fill-opacity:1;" d="M 17.5 17.5 C 18.1875 17.441406 18.601562 17.550781 19.199219 17.898438 C 19.136719 17.914062 19.078125 17.929688 19.011719 17.945312 C 18.796875 17.992188 18.796875 17.992188 18.601562 18.101562 C 18.535156 18.066406 18.46875 18.035156 18.398438 18 C 18.398438 17.902344 18.398438 17.800781 18.398438 17.699219 C 18.101562 17.667969 17.804688 17.632812 17.5 17.601562 C 17.5 17.566406 17.5 17.535156 17.5 17.5 Z M 17.5 17.5 "/>
<path style=" stroke:none;fill-rule:nonzero;fill:rgb(54.901963%,7.058824%,12.156863%);fill-opacity:1;" d="M 12.300781 14.398438 C 12.398438 14.433594 12.496094 14.464844 12.601562 14.5 C 12.46875 14.664062 12.335938 14.828125 12.199219 15 C 12.332031 15.066406 12.464844 15.132812 12.601562 15.199219 C 12.402344 15.199219 12.203125 15.199219 12 15.199219 C 11.933594 15.066406 11.867188 14.9375 11.800781 14.800781 C 12.03125 14.59375 12.03125 14.59375 12.300781 14.398438 Z M 12.300781 14.398438 "/>
<path style=" stroke:none;fill-rule:nonzero;fill:rgb(97.647059%,87.843138%,88.627452%);fill-opacity:1;" d="M 21.664062 13.5625 C 21.777344 13.5625 21.890625 13.5625 22.011719 13.558594 C 22.152344 13.578125 22.152344 13.578125 22.300781 13.601562 C 22.367188 13.699219 22.433594 13.796875 22.5 13.898438 C 21.871094 13.898438 21.246094 13.898438 20.601562 13.898438 C 21.035156 13.574219 21.144531 13.558594 21.664062 13.5625 Z M 21.664062 13.5625 "/>
<path style=" stroke:none;fill-rule:nonzero;fill:rgb(49.411765%,11.764706%,15.686275%);fill-opacity:1;" d="M 7 11.101562 C 7.03125 11.164062 7.066406 11.230469 7.101562 11.300781 C 7.066406 11.367188 7.035156 11.433594 7 11.5 C 6.933594 11.5 6.867188 11.5 6.800781 11.5 C 6.765625 11.730469 6.734375 11.960938 6.699219 12.199219 C 6.601562 12.167969 6.503906 12.132812 6.398438 12.101562 C 6.398438 12.164062 6.398438 12.230469 6.398438 12.300781 C 6.335938 12.300781 6.269531 12.300781 6.199219 12.300781 C 6.335938 11.734375 6.582031 11.480469 7 11.101562 Z M 7 11.101562 "/>
<path style=" stroke:none;fill-rule:nonzero;fill:rgb(50.588238%,9.803922%,14.117648%);fill-opacity:1;" d="M 11.898438 7 C 11.984375 7.050781 11.984375 7.050781 12.066406 7.097656 C 12.339844 7.214844 12.53125 7.21875 12.824219 7.210938 C 12.957031 7.210938 12.957031 7.210938 13.09375 7.207031 C 13.164062 7.203125 13.230469 7.203125 13.300781 7.199219 C 12.890625 7.472656 12.695312 7.539062 12.199219 7.5 C 11.914062 7.351562 11.914062 7.351562 11.699219 7.199219 C 11.765625 7.132812 11.832031 7.066406 11.898438 7 Z M 11.898438 7 "/>
<path style=" stroke:none;fill-rule:nonzero;fill:rgb(98.823529%,90.588236%,90.980393%);fill-opacity:1;" d="M 9.101562 7.300781 C 9.265625 7.300781 9.429688 7.300781 9.601562 7.300781 C 9.570312 7.367188 9.539062 7.4375 9.507812 7.507812 C 9.386719 7.835938 9.339844 8.152344 9.300781 8.5 C 9.144531 8.382812 9.144531 8.382812 9 8.199219 C 9.03125 7.957031 9.03125 7.957031 9.101562 7.699219 C 9.101562 7.566406 9.101562 7.4375 9.101562 7.300781 Z M 9.101562 7.300781 "/>
<path style=" stroke:none;fill-rule:nonzero;fill:rgb(55.686277%,13.725491%,18.82353%);fill-opacity:1;" d="M 12.800781 22.5 C 13.359375 22.542969 13.871094 22.589844 14.398438 22.800781 C 14.300781 22.867188 14.203125 22.933594 14.101562 23 C 14.035156 22.96875 13.96875 22.933594 13.898438 22.898438 C 13.53125 22.886719 13.25 22.882812 12.898438 23 C 12.867188 22.835938 12.835938 22.671875 12.800781 22.5 Z M 12.800781 22.5 "/>
<path style=" stroke:none;fill-rule:nonzero;fill:rgb(96.078432%,86.666667%,87.843138%);fill-opacity:1;" d="M 13.601562 21.601562 C 13.238281 21.875 12.871094 22.136719 12.5 22.398438 C 12.535156 22.140625 12.574219 21.941406 12.710938 21.71875 C 13 21.535156 13.269531 21.582031 13.601562 21.601562 Z M 13.601562 21.601562 "/>
<path style=" stroke:none;fill-rule:nonzero;fill:rgb(96.470588%,84.313726%,85.490197%);fill-opacity:1;" d="M 16 14.5 C 15.65625 14.730469 15.5 14.71875 15.101562 14.699219 C 15.035156 14.863281 14.96875 15.03125 14.898438 15.199219 C 14.867188 15.132812 14.835938 15.066406 14.800781 15 C 14.699219 14.96875 14.601562 14.933594 14.5 14.898438 C 15.039062 14.539062 15.355469 14.453125 16 14.5 Z M 16 14.5 "/>
<path style=" stroke:none;fill-rule:nonzero;fill:rgb(96.470588%,88.627452%,89.019608%);fill-opacity:1;" d="M 16.5 23.101562 C 16.53125 23.230469 16.566406 23.363281 16.601562 23.5 C 16.664062 23.53125 16.730469 23.566406 16.800781 23.601562 C 16.6875 23.757812 16.6875 23.757812 16.5 23.898438 C 16.179688 23.867188 16.179688 23.867188 15.898438 23.800781 C 16.097656 23.570312 16.296875 23.339844 16.5 23.101562 Z M 16.5 23.101562 "/>
<path style=" stroke:none;fill-rule:nonzero;fill:rgb(96.470588%,98.039216%,97.254902%);fill-opacity:1;" d="M 13.199219 22.898438 C 13.398438 22.898438 13.597656 22.898438 13.800781 22.898438 C 13.828125 22.964844 13.859375 23.027344 13.886719 23.09375 C 13.984375 23.316406 13.984375 23.316406 14.199219 23.398438 C 13.753906 23.4375 13.484375 23.316406 13.101562 23.101562 C 13.132812 23.035156 13.164062 22.96875 13.199219 22.898438 Z M 13.199219 22.898438 "/>
<path style=" stroke:none;fill-rule:nonzero;fill:rgb(97.647059%,90.588236%,89.411765%);fill-opacity:1;" d="M 16.898438 16.601562 C 16.964844 16.632812 17.03125 16.664062 17.101562 16.699219 C 16.742188 17.015625 16.460938 17.25 16 17.398438 C 16.066406 17.203125 16.132812 17.003906 16.199219 16.800781 C 16.277344 16.804688 16.355469 16.808594 16.4375 16.8125 C 16.714844 16.828125 16.714844 16.828125 16.898438 16.601562 Z M 16.898438 16.601562 "/>
<path style=" stroke:none;fill-rule:nonzero;fill:rgb(55.29412%,10.980392%,15.294118%);fill-opacity:1;" d="M 12.101562 12.398438 C 12.394531 12.460938 12.539062 12.523438 12.800781 12.699219 C 12.734375 12.832031 12.667969 12.964844 12.601562 13.101562 C 12.40625 13.03125 12.40625 13.03125 12.199219 12.898438 C 12.125 12.636719 12.125 12.636719 12.101562 12.398438 Z M 12.101562 12.398438 "/>
<path style=" stroke:none;fill-rule:nonzero;fill:rgb(49.411765%,5.882353%,12.54902%);fill-opacity:1;" d="M 16.898438 5.699219 C 16.933594 5.765625 16.964844 5.832031 17 5.898438 C 17.066406 5.933594 17.132812 5.964844 17.199219 6 C 17.167969 6.066406 17.132812 6.132812 17.101562 6.199219 C 17.128906 6.433594 17.160156 6.667969 17.199219 6.898438 C 17.101562 6.933594 17.003906 6.964844 16.898438 7 C 16.878906 6.800781 16.863281 6.605469 16.84375 6.40625 C 16.832031 6.296875 16.824219 6.1875 16.8125 6.070312 C 16.808594 5.980469 16.804688 5.890625 16.800781 5.800781 C 16.832031 5.765625 16.867188 5.734375 16.898438 5.699219 Z M 16.898438 5.699219 "/>
<path style=" stroke:none;fill-rule:nonzero;fill:rgb(96.078432%,84.705883%,85.09804%);fill-opacity:1;" d="M 23 15.101562 C 23.492188 15.578125 23.492188 15.578125 23.507812 15.894531 C 23.507812 16.097656 23.503906 16.296875 23.5 16.5 C 23.246094 16.203125 23.15625 15.984375 23.101562 15.601562 C 23.082031 15.507812 23.0625 15.414062 23.042969 15.320312 C 23.03125 15.246094 23.015625 15.175781 23 15.101562 Z M 23 15.101562 "/>
<path style=" stroke:none;fill-rule:nonzero;fill:rgb(50.588238%,13.725491%,17.254902%);fill-opacity:1;" d="M 15 14.398438 C 15.191406 14.390625 15.378906 14.386719 15.570312 14.382812 C 15.675781 14.378906 15.78125 14.375 15.890625 14.371094 C 16.234375 14.402344 16.417969 14.5 16.699219 14.699219 C 16.632812 14.765625 16.566406 14.832031 16.5 14.898438 C 16.433594 14.851562 16.367188 14.800781 16.300781 14.75 C 15.898438 14.550781 15.648438 14.570312 15.199219 14.601562 C 15.101562 14.632812 15.003906 14.664062 14.898438 14.699219 C 14.933594 14.601562 14.964844 14.503906 15 14.398438 Z M 15 14.398438 "/>
<path style=" stroke:none;fill-rule:nonzero;fill:rgb(53.333336%,19.215687%,22.352941%);fill-opacity:1;" d="M 18.300781 10.398438 C 18.398438 10.699219 18.398438 10.699219 18.289062 10.949219 C 18.078125 11.226562 17.917969 11.359375 17.601562 11.5 C 17.367188 11.46875 17.367188 11.46875 17.199219 11.398438 C 17.269531 11.363281 17.339844 11.328125 17.414062 11.292969 C 17.777344 11.046875 18.027344 10.742188 18.300781 10.398438 Z M 18.300781 10.398438 "/>
<path style=" stroke:none;fill-rule:nonzero;fill:rgb(98.823529%,90.980393%,90.980393%);fill-opacity:1;" d="M 18.300781 10 C 18.367188 10 18.433594 10 18.5 10 C 18.367188 10.566406 18.152344 10.765625 17.699219 11.101562 C 17.886719 10.523438 17.886719 10.523438 18 10.300781 C 18.097656 10.300781 18.199219 10.300781 18.300781 10.300781 C 18.300781 10.199219 18.300781 10.101562 18.300781 10 Z M 18.300781 10 "/>
<path style=" stroke:none;fill-rule:nonzero;fill:rgb(54.11765%,8.235294%,12.941177%);fill-opacity:1;" d="M 9.800781 13.300781 C 9.898438 13.332031 9.996094 13.367188 10.101562 13.398438 C 10.035156 13.398438 9.96875 13.398438 9.898438 13.398438 C 10 13.53125 10.097656 13.664062 10.199219 13.800781 C 9.902344 14.046875 9.902344 14.046875 9.601562 14.300781 C 9.613281 14.152344 9.628906 14.003906 9.644531 13.855469 C 9.652344 13.773438 9.660156 13.691406 9.667969 13.605469 C 9.699219 13.398438 9.699219 13.398438 9.800781 13.300781 Z M 9.800781 13.300781 "/>
<path style=" stroke:none;fill-rule:nonzero;fill:rgb(54.11765%,6.666667%,12.54902%);fill-opacity:1;" d="M 7 11.898438 C 7.03125 12 7.066406 12.097656 7.101562 12.199219 C 7.265625 12.234375 7.429688 12.265625 7.601562 12.300781 C 7.632812 12.234375 7.664062 12.167969 7.699219 12.101562 C 7.765625 12.164062 7.832031 12.230469 7.898438 12.300781 C 7.804688 12.308594 7.710938 12.316406 7.613281 12.324219 C 7.289062 12.363281 7.289062 12.363281 7.175781 12.601562 C 7.148438 12.664062 7.125 12.730469 7.101562 12.800781 C 7 12.847656 7 12.847656 6.898438 12.898438 C 6.898438 12.800781 6.898438 12.703125 6.898438 12.601562 C 6.964844 12.601562 7.03125 12.601562 7.101562 12.601562 C 7.066406 12.367188 7.035156 12.136719 7 11.898438 Z M 7 11.898438 "/>
<path style=" stroke:none;fill-rule:nonzero;fill:rgb(97.647059%,84.313726%,85.490197%);fill-opacity:1;" d="M 15.199219 11.199219 C 15.875 11.1875 15.875 11.1875 16.101562 11.300781 C 16.285156 11.324219 16.476562 11.339844 16.664062 11.355469 C 16.761719 11.363281 16.863281 11.371094 16.964844 11.382812 C 17.042969 11.386719 17.121094 11.394531 17.199219 11.398438 C 17.199219 11.433594 17.199219 11.464844 17.199219 11.5 C 16.980469 11.503906 16.757812 11.507812 16.539062 11.511719 C 16.414062 11.515625 16.292969 11.515625 16.164062 11.519531 C 15.804688 11.5 15.535156 11.429688 15.199219 11.300781 C 15.199219 11.265625 15.199219 11.234375 15.199219 11.199219 Z M 15.199219 11.199219 "/>
<path style=" stroke:none;fill-rule:nonzero;fill:rgb(97.254902%,85.09804%,87.450981%);fill-opacity:1;" d="M 14.5 9.800781 C 14.609375 10.007812 14.695312 10.183594 14.742188 10.414062 C 14.789062 10.640625 14.789062 10.640625 15.101562 10.800781 C 15.066406 10.933594 15.035156 11.0625 15 11.199219 C 14.578125 10.683594 14.488281 10.472656 14.5 9.800781 Z M 14.5 9.800781 "/>
<path style=" stroke:none;fill-rule:nonzero;fill:rgb(53.725493%,23.921569%,28.627452%);fill-opacity:1;" d="M 7.898438 9.300781 C 7.933594 9.367188 7.964844 9.433594 8 9.5 C 7.96875 9.566406 7.933594 9.632812 7.898438 9.699219 C 7.964844 9.734375 8.03125 9.765625 8.101562 9.800781 C 8 9.867188 7.902344 9.933594 7.800781 10 C 7.898438 10.03125 7.996094 10.066406 8.101562 10.101562 C 7.851562 10.25 7.851562 10.25 7.601562 10.398438 C 7.566406 9.933594 7.628906 9.683594 7.898438 9.300781 Z M 7.898438 9.300781 "/>
<path style=" stroke:none;fill-rule:nonzero;fill:rgb(96.078432%,83.529413%,83.137256%);fill-opacity:1;" d="M 9.398438 8.699219 C 9.464844 8.800781 9.53125 8.898438 9.601562 9 C 9.488281 8.996094 9.488281 8.996094 9.375 8.988281 C 8.636719 8.957031 8.636719 8.957031 8 9.300781 C 7.96875 9.167969 7.933594 9.035156 7.898438 8.898438 C 8.394531 8.835938 8.890625 8.769531 9.398438 8.699219 Z M 9.398438 8.699219 "/>
<path style=" stroke:none;fill-rule:nonzero;fill:rgb(99.215686%,94.117647%,94.117647%);fill-opacity:1;" d="M 14.601562 21.300781 C 14.351562 21.550781 14.234375 21.535156 13.886719 21.5625 C 13.796875 21.570312 13.707031 21.578125 13.613281 21.585938 C 13.507812 21.59375 13.507812 21.59375 13.398438 21.601562 C 13.398438 21.535156 13.398438 21.46875 13.398438 21.398438 C 13.800781 21.117188 14.144531 21.222656 14.601562 21.300781 Z M 14.601562 21.300781 "/>
<path style=" stroke:none;fill-rule:nonzero;fill:rgb(55.686277%,6.27451%,11.764706%);fill-opacity:1;" d="M 8.398438 12.300781 C 8.53125 12.332031 8.664062 12.367188 8.800781 12.398438 C 8.699219 12.398438 8.601562 12.398438 8.5 12.398438 C 8.597656 12.5 8.699219 12.597656 8.800781 12.699219 C 8.683594 12.945312 8.59375 13.105469 8.398438 13.300781 C 8.398438 12.96875 8.398438 12.640625 8.398438 12.300781 Z M 8.398438 12.300781 "/>
<path style=" stroke:none;fill-rule:nonzero;fill:rgb(95.294118%,98.823529%,98.039216%);fill-opacity:1;" d="M 12.300781 6.601562 C 12.53125 6.632812 12.761719 6.664062 13 6.699219 C 12.933594 6.832031 12.867188 6.964844 12.800781 7.101562 C 12.636719 7.066406 12.46875 7.035156 12.300781 7 C 12.300781 6.867188 12.300781 6.734375 12.300781 6.601562 Z M 12.300781 6.601562 "/>
<path style=" stroke:none;fill-rule:nonzero;fill:rgb(96.470588%,85.490197%,85.882354%);fill-opacity:1;" d="M 20 20.898438 C 20.066406 20.933594 20.132812 20.964844 20.199219 21 C 19.945312 21.308594 19.679688 21.386719 19.300781 21.5 C 19.199219 21.550781 19.199219 21.550781 19.101562 21.601562 C 19.035156 21.535156 18.96875 21.46875 18.898438 21.398438 C 19.078125 21.3125 19.257812 21.226562 19.4375 21.144531 C 19.539062 21.097656 19.636719 21.046875 19.738281 21 C 19.824219 20.964844 19.910156 20.933594 20 20.898438 Z M 20 20.898438 "/>
<path style=" stroke:none;fill-rule:nonzero;fill:rgb(97.647059%,89.411765%,89.019608%);fill-opacity:1;" d="M 21.199219 20 C 21.199219 20.300781 21.199219 20.300781 21.101562 20.601562 C 21.035156 20.566406 20.96875 20.535156 20.898438 20.5 C 20.867188 20.597656 20.835938 20.699219 20.800781 20.800781 C 20.636719 20.800781 20.46875 20.800781 20.300781 20.800781 C 20.410156 20.714844 20.410156 20.714844 20.523438 20.625 C 20.765625 20.429688 20.984375 20.222656 21.199219 20 Z M 21.199219 20 "/>
<path style=" stroke:none;fill-rule:nonzero;fill:rgb(98.823529%,87.058824%,88.235295%);fill-opacity:1;" d="M 17.601562 7.601562 C 17.664062 7.78125 17.664062 7.78125 17.699219 8 C 17.601562 8.148438 17.601562 8.148438 17.5 8.300781 C 17.433594 8.300781 17.367188 8.300781 17.300781 8.300781 C 17.234375 8.433594 17.167969 8.5625 17.101562 8.699219 C 17 8.667969 16.902344 8.632812 16.800781 8.601562 C 16.875 8.527344 16.953125 8.457031 17.03125 8.382812 C 17.269531 8.128906 17.433594 7.902344 17.601562 7.601562 Z M 17.601562 7.601562 "/>
<path style=" stroke:none;fill-rule:nonzero;fill:rgb(49.019608%,17.254902%,20.784314%);fill-opacity:1;" d="M 12 14.699219 C 12 14.898438 12 15.101562 12 15.300781 C 11.664062 15.160156 11.5 15.003906 11.300781 14.699219 C 11.773438 14.585938 11.773438 14.585938 12 14.699219 Z M 12 14.699219 "/>
<path style=" stroke:none;fill-rule:nonzero;fill:rgb(98.431373%,90.980393%,91.764706%);fill-opacity:1;" d="M 8.101562 10.601562 C 8.199219 10.601562 8.296875 10.601562 8.398438 10.601562 C 8.433594 10.664062 8.464844 10.730469 8.5 10.800781 C 8.703125 10.863281 8.703125 10.863281 8.898438 10.898438 C 8.867188 10.964844 8.835938 11.03125 8.800781 11.101562 C 8.5625 11.113281 8.5625 11.113281 8.300781 11.101562 C 8.234375 11.035156 8.167969 10.96875 8.101562 10.898438 C 8.101562 10.800781 8.101562 10.703125 8.101562 10.601562 Z M 8.101562 10.601562 "/>
<path style=" stroke:none;fill-rule:nonzero;fill:rgb(53.333336%,8.627451%,12.54902%);fill-opacity:1;" d="M 14.398438 21.601562 C 14.527344 21.597656 14.652344 21.589844 14.78125 21.585938 C 14.851562 21.585938 14.921875 21.582031 14.996094 21.582031 C 15.199219 21.601562 15.199219 21.601562 15.5 21.800781 C 15.335938 21.800781 15.171875 21.800781 15 21.800781 C 14.96875 21.867188 14.933594 21.933594 14.898438 22 C 14.835938 22 14.769531 22 14.699219 22 C 14.699219 21.933594 14.699219 21.867188 14.699219 21.800781 C 14.601562 21.800781 14.503906 21.800781 14.398438 21.800781 C 14.398438 21.734375 14.398438 21.667969 14.398438 21.601562 Z M 14.398438 21.601562 "/>
<path style=" stroke:none;fill-rule:nonzero;fill:rgb(97.647059%,89.803922%,90.980393%);fill-opacity:1;" d="M 11.300781 14.398438 C 11.628906 14.398438 11.960938 14.398438 12.300781 14.398438 C 12.058594 14.640625 11.964844 14.632812 11.636719 14.664062 C 11.554688 14.671875 11.472656 14.675781 11.390625 14.683594 C 11.328125 14.691406 11.265625 14.695312 11.199219 14.699219 C 11.234375 14.601562 11.265625 14.503906 11.300781 14.398438 Z M 11.300781 14.398438 "/>
<path style=" stroke:none;fill-rule:nonzero;fill:rgb(96.470588%,84.705883%,84.705883%);fill-opacity:1;" d="M 10.699219 8.300781 C 10.765625 8.332031 10.832031 8.367188 10.898438 8.398438 C 10.867188 8.632812 10.835938 8.863281 10.800781 9.101562 C 10.667969 9.101562 10.535156 9.101562 10.398438 9.101562 C 10.433594 9.035156 10.464844 8.96875 10.5 8.898438 C 10.566406 8.898438 10.632812 8.898438 10.699219 8.898438 C 10.699219 8.835938 10.699219 8.769531 10.699219 8.699219 C 10.632812 8.667969 10.566406 8.632812 10.5 8.601562 C 10.566406 8.601562 10.632812 8.601562 10.699219 8.601562 C 10.699219 8.5 10.699219 8.402344 10.699219 8.300781 Z M 10.699219 8.300781 "/>
<path style=" stroke:none;fill-rule:nonzero;fill:rgb(50.980395%,10.980392%,15.686275%);fill-opacity:1;" d="M 19.300781 18.199219 C 19.332031 18.332031 19.367188 18.464844 19.398438 18.601562 C 19.464844 18.601562 19.53125 18.601562 19.601562 18.601562 C 19.601562 18.800781 19.601562 18.800781 19.449219 18.960938 C 19.402344 19.007812 19.351562 19.054688 19.300781 19.101562 C 19.199219 19.066406 19.101562 19.035156 19 19 C 19.097656 18.734375 19.199219 18.472656 19.300781 18.199219 Z M 19.300781 18.199219 "/>
<path style=" stroke:none;fill-rule:nonzero;fill:rgb(94.901961%,81.568629%,83.137256%);fill-opacity:1;" d="M 7.730469 12.46875 C 7.820312 12.480469 7.910156 12.488281 8 12.5 C 7.867188 12.53125 7.734375 12.566406 7.601562 12.601562 C 7.601562 12.664062 7.601562 12.730469 7.601562 12.800781 C 7.367188 12.867188 7.136719 12.933594 6.898438 13 C 7.320312 12.507812 7.320312 12.507812 7.730469 12.46875 Z M 7.730469 12.46875 "/>
<path style=" stroke:none;fill-rule:nonzero;fill:rgb(53.725493%,21.176471%,25.098041%);fill-opacity:1;" d="M 10.601562 6.699219 C 10.742188 6.695312 10.882812 6.691406 11.023438 6.6875 C 11.105469 6.683594 11.183594 6.683594 11.265625 6.679688 C 11.519531 6.703125 11.679688 6.769531 11.898438 6.898438 C 11.898438 6.964844 11.898438 7.03125 11.898438 7.101562 C 11.800781 7.132812 11.703125 7.164062 11.601562 7.199219 C 11.566406 7.152344 11.53125 7.105469 11.492188 7.054688 C 11.214844 6.832031 10.949219 6.832031 10.601562 6.800781 C 10.601562 6.765625 10.601562 6.734375 10.601562 6.699219 Z M 10.601562 6.699219 "/>
<path style=" stroke:none;fill-rule:nonzero;fill:rgb(98.823529%,94.117647%,93.333334%);fill-opacity:1;" d="M 15.800781 23.800781 C 15.898438 24.101562 15.898438 24.101562 15.898438 24.398438 C 15.703125 24.5 15.703125 24.5 15.5 24.601562 C 15.425781 24.425781 15.425781 24.425781 15.398438 24.199219 C 15.59375 23.976562 15.59375 23.976562 15.800781 23.800781 Z M 15.800781 23.800781 "/>
<path style=" stroke:none;fill-rule:nonzero;fill:rgb(50.980395%,12.54902%,17.254902%);fill-opacity:1;" d="M 17.460938 22.085938 C 17.539062 22.089844 17.621094 22.097656 17.699219 22.101562 C 17.464844 22.351562 17.332031 22.488281 17 22.601562 C 17 22.210938 17.066406 22.105469 17.460938 22.085938 Z M 17.460938 22.085938 "/>
<path style=" stroke:none;fill-rule:nonzero;fill:rgb(52.549022%,13.333334%,18.82353%);fill-opacity:1;" d="M 16.800781 21.300781 C 16.800781 21.367188 16.800781 21.433594 16.800781 21.5 C 16.414062 21.714844 16.144531 21.839844 15.699219 21.800781 C 16.449219 21.300781 16.449219 21.300781 16.800781 21.300781 Z M 16.800781 21.300781 "/>
<path style=" stroke:none;fill-rule:nonzero;fill:rgb(50.980395%,14.509805%,18.431373%);fill-opacity:1;" d="M 16.800781 15.101562 C 17.042969 15.164062 17.042969 15.164062 17.300781 15.300781 C 17.382812 15.613281 17.382812 15.613281 17.398438 15.898438 C 17.335938 15.898438 17.269531 15.898438 17.199219 15.898438 C 17.066406 15.636719 16.9375 15.371094 16.800781 15.101562 Z M 16.800781 15.101562 "/>
<path style=" stroke:none;fill-rule:nonzero;fill:rgb(52.549022%,16.078432%,20.784314%);fill-opacity:1;" d="M 19.199219 8.699219 C 19.476562 8.976562 19.457031 9.222656 19.5 9.601562 C 19.367188 9.535156 19.234375 9.46875 19.101562 9.398438 C 19.132812 9.167969 19.164062 8.9375 19.199219 8.699219 Z M 19.199219 8.699219 "/>
<path style=" stroke:none;fill-rule:nonzero;fill:rgb(53.725493%,10.980392%,15.294118%);fill-opacity:1;" d="M 14.398438 23.300781 C 14.414062 23.363281 14.425781 23.429688 14.4375 23.492188 C 14.46875 23.597656 14.46875 23.597656 14.5 23.699219 C 14.566406 23.734375 14.632812 23.765625 14.699219 23.800781 C 14.335938 24.101562 14.335938 24.101562 14 24.101562 C 14 24.035156 14 23.96875 14 23.898438 C 14.097656 23.835938 14.199219 23.769531 14.300781 23.699219 C 14.371094 23.492188 14.371094 23.492188 14.398438 23.300781 Z M 14.398438 23.300781 "/>
<path style=" stroke:none;fill-rule:nonzero;fill:rgb(53.725493%,20%,23.137255%);fill-opacity:1;" d="M 15.601562 23.5 C 15.730469 23.5 15.863281 23.5 16 23.5 C 15.859375 23.835938 15.703125 24 15.398438 24.199219 C 15.398438 24.066406 15.398438 23.9375 15.398438 23.800781 C 15.5 23.800781 15.597656 23.800781 15.699219 23.800781 C 15.667969 23.699219 15.632812 23.601562 15.601562 23.5 Z M 15.601562 23.5 "/>
<path style=" stroke:none;fill-rule:nonzero;fill:rgb(96.862745%,95.686275%,96.470588%);fill-opacity:1;" d="M 21.300781 19.898438 C 21.398438 19.964844 21.496094 20.03125 21.601562 20.101562 C 21.566406 20.199219 21.535156 20.296875 21.5 20.398438 C 21.5 20.5 21.5 20.597656 21.5 20.699219 C 21.367188 20.566406 21.234375 20.4375 21.101562 20.300781 C 21.164062 20.167969 21.230469 20.035156 21.300781 19.898438 Z M 21.300781 19.898438 "/>
<path style=" stroke:none;fill-rule:nonzero;fill:rgb(96.078432%,83.137256%,84.705883%);fill-opacity:1;" d="M 19.199219 18 C 19.234375 18 19.265625 18 19.300781 18 C 19.226562 18.773438 19.226562 18.773438 19 19 C 18.902344 18.695312 18.890625 18.5 19 18.199219 C 19.066406 18.132812 19.132812 18.066406 19.199219 18 Z M 19.199219 18 "/>
<path style=" stroke:none;fill-rule:nonzero;fill:rgb(98.039216%,84.313726%,85.490197%);fill-opacity:1;" d="M 16.898438 15.5 C 16.964844 15.5 17.03125 15.5 17.101562 15.5 C 17.296875 15.792969 17.296875 15.914062 17.261719 16.273438 C 17.242188 16.382812 17.222656 16.488281 17.199219 16.601562 C 17.132812 16.566406 17.066406 16.535156 17 16.5 C 17.019531 16.429688 17.042969 16.355469 17.0625 16.28125 C 17.105469 15.957031 17.042969 15.792969 16.898438 15.5 Z M 16.898438 15.5 "/>
<path style=" stroke:none;fill-rule:nonzero;fill:rgb(94.509804%,87.843138%,86.666667%);fill-opacity:1;" d="M 11.300781 14.800781 C 11.464844 14.964844 11.628906 15.128906 11.800781 15.300781 C 11.667969 15.332031 11.535156 15.367188 11.398438 15.398438 C 11.335938 15.234375 11.269531 15.070312 11.199219 14.898438 C 11.234375 14.867188 11.265625 14.835938 11.300781 14.800781 Z M 11.300781 14.800781 "/>
<path style=" stroke:none;fill-rule:nonzero;fill:rgb(96.078432%,87.450981%,86.666667%);fill-opacity:1;" d="M 16.101562 14.601562 C 16.445312 14.796875 16.445312 14.796875 16.800781 15 C 16.5 15.199219 16.5 15.199219 16.300781 15.199219 C 16.265625 15.101562 16.234375 15.003906 16.199219 14.898438 C 16.132812 14.835938 16.066406 14.769531 16 14.699219 C 16.03125 14.667969 16.066406 14.632812 16.101562 14.601562 Z M 16.101562 14.601562 "/>
<path style=" stroke:none;fill-rule:nonzero;fill:rgb(56.078434%,14.117648%,18.82353%);fill-opacity:1;" d="M 8.898438 9.699219 C 8.925781 9.765625 8.953125 9.828125 8.980469 9.894531 C 9.089844 10.132812 9.089844 10.132812 9.398438 10.199219 C 9.300781 10.25 9.300781 10.25 9.199219 10.300781 C 9.234375 10.433594 9.265625 10.5625 9.300781 10.699219 C 9.234375 10.699219 9.167969 10.699219 9.101562 10.699219 C 9.085938 10.621094 9.074219 10.539062 9.0625 10.457031 C 9.03125 10.328125 9.03125 10.328125 9 10.199219 C 8.933594 10.167969 8.867188 10.132812 8.800781 10.101562 C 8.832031 9.96875 8.867188 9.835938 8.898438 9.699219 Z M 8.898438 9.699219 "/>
<path style=" stroke:none;fill-rule:nonzero;fill:rgb(49.411765%,13.725491%,18.039216%);fill-opacity:1;" d="M 17 8 C 17.132812 8.03125 17.265625 8.066406 17.398438 8.101562 C 16.960938 8.5 16.960938 8.5 16.800781 8.601562 C 16.699219 8.566406 16.601562 8.535156 16.5 8.5 C 16.632812 8.46875 16.765625 8.433594 16.898438 8.398438 C 16.933594 8.269531 16.964844 8.136719 17 8 Z M 17 8 "/>
<path style=" stroke:none;fill-rule:nonzero;fill:rgb(46.27451%,14.509805%,21.568628%);fill-opacity:1;" d="M 23.601562 15.898438 C 23.664062 15.964844 23.730469 16.03125 23.800781 16.101562 C 23.761719 16.363281 23.761719 16.363281 23.699219 16.601562 C 23.601562 16.632812 23.503906 16.664062 23.398438 16.699219 C 23.464844 16.4375 23.53125 16.171875 23.601562 15.898438 Z M 23.601562 15.898438 "/>
<path style=" stroke:none;fill-rule:nonzero;fill:rgb(98.431373%,92.941177%,92.54902%);fill-opacity:1;" d="M 10.699219 13.199219 C 10.699219 13.300781 10.699219 13.398438 10.699219 13.5 C 10.632812 13.5 10.566406 13.5 10.5 13.5 C 10.46875 13.632812 10.433594 13.765625 10.398438 13.898438 C 10.300781 13.867188 10.203125 13.835938 10.101562 13.800781 C 10.203125 13.539062 10.265625 13.421875 10.511719 13.273438 C 10.574219 13.25 10.636719 13.226562 10.699219 13.199219 Z M 10.699219 13.199219 "/>
<path style=" stroke:none;fill-rule:nonzero;fill:rgb(96.862745%,87.058824%,88.627452%);fill-opacity:1;" d="M 19.199219 8.300781 C 19.300781 8.332031 19.398438 8.367188 19.5 8.398438 C 19.5625 8.6875 19.5625 8.6875 19.601562 9 C 19.535156 9.066406 19.46875 9.132812 19.398438 9.199219 C 19.300781 8.9375 19.203125 8.671875 19.101562 8.398438 C 19.132812 8.367188 19.164062 8.335938 19.199219 8.300781 Z M 19.199219 8.300781 "/>
<path style=" stroke:none;fill-rule:nonzero;fill:rgb(95.686275%,83.92157%,84.313726%);fill-opacity:1;" d="M 10.5 8.101562 C 10.566406 8.164062 10.632812 8.230469 10.699219 8.300781 C 10.46875 8.265625 10.238281 8.234375 10 8.199219 C 9.96875 8.300781 9.933594 8.398438 9.898438 8.5 C 9.769531 8.433594 9.636719 8.367188 9.5 8.300781 C 9.839844 8.089844 10.105469 8.066406 10.5 8.101562 Z M 10.5 8.101562 "/>
<path style=" stroke:none;fill-rule:nonzero;fill:rgb(99.215686%,91.37255%,92.156863%);fill-opacity:1;" d="M 10.5 6.5 C 10.695312 6.46875 10.695312 6.46875 10.914062 6.480469 C 11.039062 6.488281 11.167969 6.492188 11.300781 6.5 C 11.300781 6.566406 11.300781 6.632812 11.300781 6.699219 C 10.96875 6.734375 10.640625 6.765625 10.300781 6.800781 C 10.367188 6.699219 10.433594 6.601562 10.5 6.5 Z M 10.5 6.5 "/>
<path style=" stroke:none;fill-rule:nonzero;fill:rgb(47.058824%,12.941177%,18.039216%);fill-opacity:1;" d="M 12.699219 23 C 12.765625 23 12.832031 23 12.898438 23 C 12.761719 23.335938 12.601562 23.5 12.300781 23.699219 C 12.300781 23.566406 12.300781 23.4375 12.300781 23.300781 C 12.398438 23.300781 12.496094 23.300781 12.601562 23.300781 C 12.632812 23.199219 12.664062 23.101562 12.699219 23 Z M 12.699219 23 "/>
<path style=" stroke:none;fill-rule:nonzero;fill:rgb(94.509804%,81.176472%,81.568629%);fill-opacity:1;" d="M 17.5 22.300781 C 17.53125 22.367188 17.566406 22.433594 17.601562 22.5 C 17.074219 22.820312 17.074219 22.820312 16.898438 22.898438 C 16.835938 22.867188 16.769531 22.835938 16.699219 22.800781 C 17.097656 22.550781 17.097656 22.550781 17.5 22.300781 Z M 17.5 22.300781 "/>
<path style=" stroke:none;fill-rule:nonzero;fill:rgb(96.470588%,93.333334%,91.764706%);fill-opacity:1;" d="M 18.898438 21.5 C 18.867188 21.632812 18.835938 21.765625 18.800781 21.898438 C 18.667969 21.933594 18.535156 21.964844 18.398438 22 C 18.4375 21.804688 18.4375 21.804688 18.5 21.601562 C 18.699219 21.5 18.699219 21.5 18.898438 21.5 Z M 18.898438 21.5 "/>
<path style=" stroke:none;fill-rule:nonzero;fill:rgb(47.450981%,7.058824%,10.588235%);fill-opacity:1;" d="M 22.898438 14.199219 C 23.03125 14.265625 23.164062 14.332031 23.300781 14.398438 C 23.265625 14.53125 23.234375 14.664062 23.199219 14.800781 C 23.066406 14.699219 22.9375 14.601562 22.800781 14.5 C 22.832031 14.402344 22.867188 14.300781 22.898438 14.199219 Z M 22.898438 14.199219 "/>
<path style=" stroke:none;fill-rule:nonzero;fill:rgb(96.862745%,85.882354%,85.490197%);fill-opacity:1;" d="M 8.199219 12.800781 C 8.234375 12.800781 8.265625 12.800781 8.300781 12.800781 C 8.3125 13.375 8.3125 13.375 8.199219 13.601562 C 8.132812 13.601562 8.066406 13.601562 8 13.601562 C 7.980469 13.226562 7.984375 13.121094 8.199219 12.800781 Z M 8.199219 12.800781 "/>
<path style=" stroke:none;fill-rule:nonzero;fill:rgb(50.196081%,19.607843%,23.529412%);fill-opacity:1;" d="M 16.699219 5.5 C 17.039062 5.617188 17.265625 5.726562 17.5 6 C 17.140625 6 16.992188 5.902344 16.699219 5.699219 C 16.699219 5.632812 16.699219 5.566406 16.699219 5.5 Z M 16.699219 5.5 "/>
</g>
</svg>
